<svg width="754" height="514" viewBox="0 0 754 514" fill="none" xmlns="http://www.w3.org/2000/svg">
<g clip-path="url(#clip0)">
<rect width="754" height="514" rx="6" fill="#F3F3F3"/>
<path d="M52.6338 50.4785H43.874V57.041H54.1133V60H40.168V38.6719H54.0107V41.6602H43.874V47.5488H52.6338V50.4785ZM60.0898 44.1504L60.1924 45.9814C61.3643 44.5654 62.9023 43.8574 64.8066 43.8574C68.1074 43.8574 69.7871 45.7471 69.8457 49.5264V60H66.2861V49.7314C66.2861 48.7256 66.0664 47.9834 65.627 47.5049C65.1973 47.0166 64.4893 46.7725 63.5029 46.7725C62.0674 46.7725 60.998 47.4219 60.2949 48.7207V60H56.7354V44.1504H60.0898ZM81.7842 47.4023C81.3154 47.3242 80.832 47.2852 80.334 47.2852C78.7031 47.2852 77.6045 47.9102 77.0381 49.1602V60H73.4785V44.1504H76.877L76.9648 45.9229C77.8242 44.5459 79.0156 43.8574 80.5391 43.8574C81.0469 43.8574 81.4668 43.9258 81.7988 44.0625L81.7842 47.4023ZM82.8389 51.9287C82.8389 50.376 83.1465 48.9795 83.7617 47.7393C84.377 46.4893 85.2412 45.5322 86.3545 44.8682C87.4678 44.1943 88.7471 43.8574 90.1924 43.8574C92.3311 43.8574 94.0645 44.5459 95.3926 45.9229C96.7305 47.2998 97.4531 49.126 97.5605 51.4014L97.5752 52.2363C97.5752 53.7988 97.2725 55.1953 96.667 56.4258C96.0713 57.6562 95.2119 58.6084 94.0889 59.2822C92.9756 59.9561 91.6865 60.293 90.2217 60.293C87.9854 60.293 86.1934 59.5508 84.8457 58.0664C83.5078 56.5723 82.8389 54.585 82.8389 52.1045V51.9287ZM86.3984 52.2363C86.3984 53.8672 86.7354 55.1465 87.4092 56.0742C88.083 56.9922 89.0205 57.4512 90.2217 57.4512C91.4229 57.4512 92.3555 56.9824 93.0195 56.0449C93.6934 55.1074 94.0303 53.7354 94.0303 51.9287C94.0303 50.3271 93.6836 49.0576 92.9902 48.1201C92.3066 47.1826 91.374 46.7139 90.1924 46.7139C89.0303 46.7139 88.1074 47.1777 87.4238 48.1055C86.7402 49.0234 86.3984 50.4004 86.3984 52.2363ZM104.372 60H100.812V37.5H104.372V60ZM112.048 60H108.488V37.5H112.048V60ZM122.917 60.293C120.661 60.293 118.83 59.585 117.424 58.1689C116.027 56.7432 115.329 54.8486 115.329 52.4854V52.0459C115.329 50.4639 115.632 49.0527 116.237 47.8125C116.853 46.5625 117.712 45.5908 118.815 44.8975C119.919 44.2041 121.149 43.8574 122.507 43.8574C124.665 43.8574 126.33 44.5459 127.502 45.9229C128.684 47.2998 129.274 49.248 129.274 51.7676V53.2031H118.918C119.025 54.5117 119.46 55.5469 120.222 56.3086C120.993 57.0703 121.96 57.4512 123.122 57.4512C124.753 57.4512 126.081 56.792 127.106 55.4736L129.025 57.3047C128.391 58.252 127.541 58.9893 126.477 59.5166C125.422 60.0342 124.235 60.293 122.917 60.293ZM122.492 46.7139C121.516 46.7139 120.725 47.0557 120.119 47.7393C119.523 48.4229 119.143 49.375 118.977 50.5957H125.759V50.332C125.681 49.1406 125.363 48.2422 124.807 47.6367C124.25 47.0215 123.479 46.7139 122.492 46.7139ZM131.384 51.958C131.384 49.5166 131.95 47.5586 133.083 46.084C134.216 44.5996 135.734 43.8574 137.639 43.8574C139.318 43.8574 140.676 44.4434 141.711 45.6152V37.5H145.271V60H142.048L141.872 58.3594C140.808 59.6484 139.387 60.293 137.609 60.293C135.754 60.293 134.25 59.5459 133.098 58.0518C131.955 56.5576 131.384 54.5264 131.384 51.958ZM134.943 52.2656C134.943 53.877 135.251 55.1367 135.866 56.0449C136.491 56.9434 137.375 57.3926 138.518 57.3926C139.973 57.3926 141.037 56.7432 141.711 55.4443V48.6768C141.057 47.4072 140.002 46.7725 138.547 46.7725C137.395 46.7725 136.506 47.2314 135.881 48.1494C135.256 49.0576 134.943 50.4297 134.943 52.2656ZM167.946 54.5068C167.946 53.5693 167.614 52.8467 166.95 52.3389C166.296 51.8311 165.109 51.3184 163.391 50.8008C161.672 50.2832 160.305 49.707 159.289 49.0723C157.346 47.8516 156.374 46.2598 156.374 44.2969C156.374 42.5781 157.072 41.1621 158.469 40.0488C159.875 38.9355 161.696 38.3789 163.933 38.3789C165.417 38.3789 166.74 38.6523 167.902 39.1992C169.064 39.7461 169.978 40.5273 170.642 41.543C171.306 42.5488 171.638 43.667 171.638 44.8975H167.946C167.946 43.7842 167.595 42.915 166.892 42.29C166.198 41.6553 165.202 41.3379 163.903 41.3379C162.692 41.3379 161.75 41.5967 161.076 42.1143C160.412 42.6318 160.08 43.3545 160.08 44.2822C160.08 45.0635 160.441 45.7178 161.164 46.2451C161.887 46.7627 163.078 47.2705 164.738 47.7686C166.398 48.2568 167.731 48.8184 168.737 49.4531C169.743 50.0781 170.48 50.8008 170.949 51.6211C171.418 52.4316 171.652 53.3838 171.652 54.4775C171.652 56.2549 170.969 57.6709 169.602 58.7256C168.244 59.7705 166.398 60.293 164.064 60.293C162.521 60.293 161.101 60.0098 159.802 59.4434C158.513 58.8672 157.507 58.0762 156.784 57.0703C156.071 56.0645 155.715 54.8926 155.715 53.5547H159.421C159.421 54.7656 159.821 55.7031 160.622 56.3672C161.423 57.0312 162.57 57.3633 164.064 57.3633C165.354 57.3633 166.32 57.1045 166.965 56.5869C167.619 56.0596 167.946 55.3662 167.946 54.5068ZM184.162 58.4473C183.117 59.6777 181.633 60.293 179.709 60.293C177.99 60.293 176.687 59.79 175.798 58.7842C174.919 57.7783 174.479 56.3232 174.479 54.4189V44.1504H178.039V54.375C178.039 56.3867 178.874 57.3926 180.544 57.3926C182.272 57.3926 183.439 56.7725 184.045 55.5322V44.1504H187.604V60H184.25L184.162 58.4473ZM205.139 52.2363C205.139 54.6973 204.587 56.6553 203.483 58.1104C202.39 59.5654 200.881 60.293 198.957 60.293C197.102 60.293 195.656 59.624 194.621 58.2861L194.445 60H191.223V37.5H194.782V45.6738C195.808 44.4629 197.189 43.8574 198.928 43.8574C200.861 43.8574 202.38 44.5752 203.483 46.0107C204.587 47.4463 205.139 49.4531 205.139 52.0312V52.2363ZM201.579 51.9287C201.579 50.21 201.276 48.9209 200.671 48.0615C200.065 47.2021 199.187 46.7725 198.034 46.7725C196.491 46.7725 195.407 47.4463 194.782 48.7939V55.3271C195.417 56.7041 196.511 57.3926 198.063 57.3926C199.177 57.3926 200.036 56.9775 200.642 56.1475C201.247 55.3174 201.56 54.0625 201.579 52.3828V51.9287ZM211.848 44.1504V61.4062C211.848 63.0273 211.442 64.2627 210.632 65.1123C209.831 65.9717 208.654 66.4014 207.102 66.4014C206.447 66.4014 205.817 66.3184 205.212 66.1523V63.3398C205.583 63.4277 206.003 63.4717 206.472 63.4717C207.653 63.4717 208.259 62.8271 208.288 61.5381V44.1504H211.848ZM207.98 40.0342C207.98 39.4873 208.151 39.0332 208.493 38.6719C208.845 38.3105 209.343 38.1299 209.987 38.1299C210.632 38.1299 211.13 38.3105 211.481 38.6719C211.833 39.0332 212.009 39.4873 212.009 40.0342C212.009 40.5713 211.833 41.0205 211.481 41.3818C211.13 41.7334 210.632 41.9092 209.987 41.9092C209.343 41.9092 208.845 41.7334 208.493 41.3818C208.151 41.0205 207.98 40.5713 207.98 40.0342ZM222.644 60.293C220.388 60.293 218.557 59.585 217.15 58.1689C215.754 56.7432 215.056 54.8486 215.056 52.4854V52.0459C215.056 50.4639 215.358 49.0527 215.964 47.8125C216.579 46.5625 217.438 45.5908 218.542 44.8975C219.646 44.2041 220.876 43.8574 222.233 43.8574C224.392 43.8574 226.057 44.5459 227.229 45.9229C228.41 47.2998 229.001 49.248 229.001 51.7676V53.2031H218.645C218.752 54.5117 219.187 55.5469 219.948 56.3086C220.72 57.0703 221.687 57.4512 222.849 57.4512C224.479 57.4512 225.808 56.792 226.833 55.4736L228.752 57.3047C228.117 58.252 227.268 58.9893 226.203 59.5166C225.148 60.0342 223.962 60.293 222.644 60.293ZM222.219 46.7139C221.242 46.7139 220.451 47.0557 219.846 47.7393C219.25 48.4229 218.869 49.375 218.703 50.5957H225.485V50.332C225.407 49.1406 225.09 48.2422 224.533 47.6367C223.977 47.0215 223.205 46.7139 222.219 46.7139ZM238.288 57.4512C239.177 57.4512 239.914 57.1924 240.5 56.6748C241.086 56.1572 241.398 55.5176 241.438 54.7559H244.792C244.753 55.7422 244.445 56.665 243.869 57.5244C243.293 58.374 242.512 59.0479 241.525 59.5459C240.539 60.0439 239.475 60.293 238.332 60.293C236.115 60.293 234.357 59.5752 233.059 58.1396C231.76 56.7041 231.11 54.7217 231.11 52.1924V51.8262C231.11 49.4141 231.755 47.4854 233.044 46.04C234.333 44.585 236.091 43.8574 238.317 43.8574C240.202 43.8574 241.735 44.4092 242.917 45.5127C244.108 46.6064 244.733 48.0469 244.792 49.834H241.438C241.398 48.9258 241.086 48.1787 240.5 47.5928C239.924 47.0068 239.187 46.7139 238.288 46.7139C237.136 46.7139 236.247 47.1338 235.622 47.9736C234.997 48.8037 234.68 50.0684 234.67 51.7676V52.3389C234.67 54.0576 234.978 55.3418 235.593 56.1914C236.218 57.0312 237.116 57.4512 238.288 57.4512ZM251.94 40.2979V44.1504H254.738V46.7871H251.94V55.6348C251.94 56.2402 252.058 56.6797 252.292 56.9531C252.536 57.2168 252.966 57.3486 253.581 57.3486C253.991 57.3486 254.406 57.2998 254.826 57.2021V59.9561C254.016 60.1807 253.234 60.293 252.482 60.293C249.748 60.293 248.381 58.7842 248.381 55.7666V46.7871H245.773V44.1504H248.381V40.2979H251.94ZM266.354 55.6934C266.354 55.0586 266.091 54.5752 265.563 54.2432C265.046 53.9111 264.182 53.6182 262.971 53.3643C261.76 53.1104 260.749 52.7881 259.938 52.3975C258.161 51.5381 257.272 50.293 257.272 48.6621C257.272 47.2949 257.849 46.1523 259.001 45.2344C260.153 44.3164 261.618 43.8574 263.396 43.8574C265.29 43.8574 266.818 44.3262 267.98 45.2637C269.152 46.2012 269.738 47.417 269.738 48.9111H266.179C266.179 48.2275 265.925 47.6611 265.417 47.2119C264.909 46.7529 264.235 46.5234 263.396 46.5234C262.614 46.5234 261.975 46.7041 261.477 47.0654C260.988 47.4268 260.744 47.9102 260.744 48.5156C260.744 49.0625 260.974 49.4873 261.433 49.79C261.892 50.0928 262.819 50.4004 264.216 50.7129C265.612 51.0156 266.706 51.3818 267.497 51.8115C268.298 52.2314 268.889 52.7393 269.27 53.335C269.66 53.9307 269.855 54.6533 269.855 55.5029C269.855 56.9287 269.265 58.0859 268.083 58.9746C266.901 59.8535 265.354 60.293 263.439 60.293C262.141 60.293 260.983 60.0586 259.968 59.5898C258.952 59.1211 258.161 58.4766 257.595 57.6562C257.028 56.8359 256.745 55.9521 256.745 55.0049H260.202C260.251 55.8447 260.568 56.4941 261.154 56.9531C261.74 57.4023 262.517 57.627 263.483 57.627C264.421 57.627 265.134 57.4512 265.622 57.0996C266.11 56.7383 266.354 56.2695 266.354 55.6934Z" fill="black"/>
<line y1="-0.5" x2="754.001" y2="-0.5" transform="matrix(0.999999 -0.0016159 0.00185237 0.999998 0 95.2184)" stroke="#DDDDDD"/>
<line y1="-0.5" x2="754.001" y2="-0.5" transform="matrix(0.999999 -0.0016159 0.00185237 0.999998 0 200)" stroke="#DDDDDD"/>
<path d="M48.7407 150.125H50.8618V152.41H48.7407V156.207H45.8931V152.41H38.522L38.4399 150.676L45.7993 139.144H48.7407V150.125ZM41.4282 150.125H45.8931V143L45.6821 143.375L41.4282 150.125ZM63.4946 143.644C63.4946 144.48 63.2798 145.226 62.8501 145.883C62.4204 146.531 61.8345 147.043 61.0923 147.418C61.9829 147.832 62.6665 148.398 63.1431 149.117C63.6274 149.836 63.8696 150.648 63.8696 151.555C63.8696 153.055 63.3618 154.246 62.3462 155.129C61.3306 156.004 59.979 156.441 58.2915 156.441C56.5962 156.441 55.2368 156 54.2134 155.117C53.1978 154.234 52.6899 153.047 52.6899 151.555C52.6899 150.641 52.9321 149.82 53.4165 149.094C53.9009 148.367 54.5806 147.808 55.4556 147.418C54.7212 147.043 54.1392 146.531 53.7095 145.883C53.2876 145.226 53.0767 144.48 53.0767 143.644C53.0767 142.191 53.5454 141.039 54.4829 140.187C55.4204 139.336 56.686 138.91 58.2798 138.91C59.8813 138.91 61.1509 139.336 62.0884 140.187C63.0259 141.039 63.4946 142.191 63.4946 143.644ZM61.022 151.414C61.022 150.57 60.7681 149.891 60.2603 149.375C59.7603 148.851 59.0962 148.59 58.2681 148.59C57.4399 148.59 56.7759 148.848 56.2759 149.363C55.7837 149.879 55.5376 150.562 55.5376 151.414C55.5376 152.25 55.7798 152.918 56.2642 153.418C56.7563 153.918 57.4321 154.168 58.2915 154.168C59.1509 154.168 59.8188 153.926 60.2954 153.441C60.7798 152.957 61.022 152.281 61.022 151.414ZM60.6587 143.75C60.6587 143.008 60.4438 142.398 60.0142 141.922C59.5845 141.437 59.0063 141.195 58.2798 141.195C57.5532 141.195 56.979 141.426 56.5571 141.887C56.1353 142.34 55.9243 142.961 55.9243 143.75C55.9243 144.531 56.1353 145.152 56.5571 145.613C56.9868 146.074 57.5649 146.305 58.2915 146.305C59.0181 146.305 59.5923 146.074 60.0142 145.613C60.4438 145.152 60.6587 144.531 60.6587 143.75ZM77.5103 149.023C77.5103 151.476 77.0493 153.328 76.1274 154.578C75.2134 155.82 73.8188 156.441 71.9438 156.441C70.1001 156.441 68.7095 155.836 67.772 154.625C66.8423 153.406 66.3657 151.605 66.3423 149.223V146.269C66.3423 143.816 66.7993 141.976 67.7134 140.75C68.6353 139.523 70.0376 138.91 71.9204 138.91C73.7876 138.91 75.1782 139.508 76.0923 140.703C77.0142 141.898 77.4868 143.687 77.5103 146.07V149.023ZM74.6626 145.836C74.6626 144.234 74.4438 143.062 74.0063 142.32C73.5688 141.57 72.8735 141.195 71.9204 141.195C70.9907 141.195 70.3071 141.551 69.8696 142.262C69.4321 142.965 69.2017 144.066 69.1782 145.566V149.433C69.1782 151.027 69.4009 152.215 69.8462 152.996C70.2915 153.777 70.9907 154.168 71.9438 154.168C72.8579 154.168 73.5337 153.808 73.9712 153.09C74.4087 152.363 74.6392 151.23 74.6626 149.691V145.836ZM91.5024 156.207H80.0298V154.25L85.7134 148.051C86.5337 147.137 87.1157 146.375 87.4595 145.766C87.811 145.148 87.9868 144.531 87.9868 143.914C87.9868 143.101 87.7563 142.445 87.2954 141.945C86.8423 141.445 86.229 141.195 85.4556 141.195C84.5337 141.195 83.8188 141.476 83.311 142.039C82.8032 142.601 82.5493 143.371 82.5493 144.348H79.7017C79.7017 143.308 79.936 142.375 80.4048 141.547C80.8813 140.711 81.5571 140.062 82.4321 139.601C83.3149 139.141 84.3306 138.91 85.479 138.91C87.1353 138.91 88.4399 139.328 89.3931 140.164C90.354 140.992 90.8345 142.141 90.8345 143.609C90.8345 144.461 90.5923 145.355 90.1079 146.293C89.6313 147.223 88.8462 148.281 87.7524 149.469L83.5806 153.933H91.5024V156.207ZM103.303 150.125H105.424V152.41H103.303V156.207H100.456V152.41H93.0845L93.0024 150.676L100.362 139.144H103.303V150.125ZM95.9907 150.125H100.456V143L100.245 143.375L95.9907 150.125Z" fill="#4259D4"/>
<path d="M161.42 151.754H154.271L152.666 156.207H150.345L156.861 139.144H158.83L165.357 156.207H163.049L161.42 151.754ZM154.951 149.902H160.752L157.845 141.922L154.951 149.902ZM178.025 150.008C178.025 151.937 177.584 153.492 176.701 154.672C175.818 155.851 174.623 156.441 173.115 156.441C171.576 156.441 170.365 155.953 169.482 154.976V161.082H167.314V143.527H169.295L169.4 144.933C170.283 143.84 171.51 143.293 173.08 143.293C174.603 143.293 175.806 143.867 176.689 145.016C177.58 146.164 178.025 147.762 178.025 149.808V150.008ZM175.857 149.762C175.857 148.332 175.552 147.203 174.943 146.375C174.334 145.547 173.498 145.133 172.435 145.133C171.123 145.133 170.138 145.715 169.482 146.879V152.937C170.131 154.094 171.123 154.672 172.459 154.672C173.498 154.672 174.322 154.262 174.931 153.441C175.549 152.613 175.857 151.387 175.857 149.762ZM191.502 150.008C191.502 151.937 191.06 153.492 190.177 154.672C189.295 155.851 188.099 156.441 186.592 156.441C185.052 156.441 183.842 155.953 182.959 154.976V161.082H180.791V143.527H182.771L182.877 144.933C183.76 143.84 184.986 143.293 186.556 143.293C188.08 143.293 189.283 143.867 190.166 145.016C191.056 146.164 191.502 147.762 191.502 149.808V150.008ZM189.334 149.762C189.334 148.332 189.029 147.203 188.42 146.375C187.81 145.547 186.974 145.133 185.912 145.133C184.599 145.133 183.615 145.715 182.959 146.879V152.937C183.607 154.094 184.599 154.672 185.935 154.672C186.974 154.672 187.799 154.262 188.408 153.441C189.025 152.613 189.334 151.387 189.334 149.762ZM196.623 156.207H194.455V138.207H196.623V156.207ZM202.459 156.207H200.291V143.527H202.459V156.207ZM200.115 140.164C200.115 139.812 200.22 139.516 200.431 139.273C200.65 139.031 200.97 138.91 201.392 138.91C201.814 138.91 202.135 139.031 202.353 139.273C202.572 139.516 202.681 139.812 202.681 140.164C202.681 140.516 202.572 140.808 202.353 141.043C202.135 141.277 201.814 141.394 201.392 141.394C200.97 141.394 200.65 141.277 200.431 141.043C200.22 140.808 200.115 140.516 200.115 140.164ZM211.025 154.672C211.799 154.672 212.474 154.437 213.052 153.969C213.631 153.5 213.951 152.914 214.013 152.211H216.064C216.025 152.937 215.775 153.629 215.314 154.285C214.853 154.941 214.236 155.465 213.463 155.855C212.697 156.246 211.885 156.441 211.025 156.441C209.299 156.441 207.924 155.867 206.9 154.719C205.885 153.562 205.377 151.984 205.377 149.984V149.621C205.377 148.387 205.603 147.289 206.056 146.328C206.51 145.367 207.158 144.621 208.002 144.09C208.853 143.558 209.857 143.293 211.013 143.293C212.435 143.293 213.615 143.719 214.552 144.57C215.498 145.422 216.002 146.527 216.064 147.887H214.013C213.951 147.066 213.638 146.394 213.076 145.871C212.521 145.34 211.834 145.074 211.013 145.074C209.912 145.074 209.056 145.473 208.447 146.269C207.845 147.058 207.545 148.203 207.545 149.703V150.113C207.545 151.574 207.845 152.699 208.447 153.488C209.049 154.277 209.908 154.672 211.025 154.672ZM226.33 156.207C226.205 155.957 226.103 155.512 226.025 154.871C225.017 155.918 223.814 156.441 222.416 156.441C221.166 156.441 220.138 156.09 219.334 155.387C218.537 154.676 218.138 153.777 218.138 152.691C218.138 151.371 218.638 150.348 219.638 149.621C220.646 148.887 222.06 148.519 223.881 148.519H225.99V147.523C225.99 146.766 225.763 146.164 225.31 145.719C224.857 145.266 224.189 145.039 223.306 145.039C222.533 145.039 221.885 145.234 221.361 145.625C220.838 146.016 220.576 146.488 220.576 147.043H218.396C218.396 146.41 218.619 145.801 219.064 145.215C219.517 144.621 220.127 144.152 220.892 143.808C221.666 143.465 222.513 143.293 223.435 143.293C224.896 143.293 226.041 143.66 226.869 144.394C227.697 145.121 228.127 146.125 228.158 147.406V153.242C228.158 154.406 228.306 155.332 228.603 156.019V156.207H226.33ZM222.732 154.555C223.412 154.555 224.056 154.379 224.666 154.027C225.275 153.676 225.717 153.219 225.99 152.656V150.055H224.291C221.635 150.055 220.306 150.832 220.306 152.387C220.306 153.066 220.533 153.598 220.986 153.98C221.439 154.363 222.021 154.555 222.732 154.555ZM234.498 140.457V143.527H236.865V145.203H234.498V153.066C234.498 153.574 234.603 153.957 234.814 154.215C235.025 154.465 235.385 154.59 235.892 154.59C236.142 154.59 236.486 154.543 236.924 154.449V156.207C236.353 156.363 235.799 156.441 235.26 156.441C234.291 156.441 233.56 156.148 233.068 155.562C232.576 154.976 232.33 154.144 232.33 153.066V145.203H230.021V143.527H232.33V140.457H234.498ZM241.763 156.207H239.595V143.527H241.763V156.207ZM239.42 140.164C239.42 139.812 239.525 139.516 239.736 139.273C239.955 139.031 240.275 138.91 240.697 138.91C241.119 138.91 241.439 139.031 241.658 139.273C241.877 139.516 241.986 139.812 241.986 140.164C241.986 140.516 241.877 140.808 241.658 141.043C241.439 141.277 241.119 141.394 240.697 141.394C240.275 141.394 239.955 141.277 239.736 141.043C239.525 140.808 239.42 140.516 239.42 140.164ZM244.67 149.75C244.67 148.508 244.912 147.391 245.396 146.398C245.888 145.406 246.568 144.641 247.435 144.101C248.31 143.562 249.306 143.293 250.424 143.293C252.15 143.293 253.545 143.891 254.607 145.086C255.677 146.281 256.213 147.871 256.213 149.855V150.008C256.213 151.242 255.974 152.351 255.498 153.336C255.029 154.312 254.353 155.074 253.47 155.621C252.595 156.168 251.588 156.441 250.447 156.441C248.728 156.441 247.334 155.844 246.263 154.648C245.201 153.453 244.67 151.871 244.67 149.902V149.75ZM246.849 150.008C246.849 151.414 247.174 152.543 247.822 153.394C248.478 154.246 249.353 154.672 250.447 154.672C251.549 154.672 252.424 154.242 253.072 153.383C253.72 152.516 254.045 151.305 254.045 149.75C254.045 148.359 253.713 147.234 253.049 146.375C252.392 145.508 251.517 145.074 250.424 145.074C249.353 145.074 248.49 145.5 247.834 146.351C247.177 147.203 246.849 148.422 246.849 150.008ZM260.982 143.527L261.052 145.121C262.021 143.902 263.287 143.293 264.849 143.293C267.529 143.293 268.881 144.805 268.904 147.828V156.207H266.736V147.816C266.728 146.902 266.517 146.226 266.103 145.789C265.697 145.351 265.06 145.133 264.193 145.133C263.49 145.133 262.873 145.32 262.342 145.695C261.81 146.07 261.396 146.562 261.099 147.172V156.207H258.931V143.527H260.982ZM279.556 152.844C279.556 152.258 279.334 151.805 278.888 151.484C278.451 151.156 277.681 150.875 276.58 150.641C275.486 150.406 274.615 150.125 273.967 149.797C273.326 149.469 272.849 149.078 272.537 148.625C272.232 148.172 272.08 147.633 272.08 147.008C272.08 145.969 272.517 145.09 273.392 144.371C274.275 143.652 275.4 143.293 276.767 143.293C278.205 143.293 279.369 143.664 280.26 144.406C281.158 145.148 281.607 146.098 281.607 147.254H279.427C279.427 146.66 279.174 146.148 278.666 145.719C278.166 145.289 277.533 145.074 276.767 145.074C275.978 145.074 275.361 145.246 274.916 145.59C274.47 145.933 274.248 146.383 274.248 146.937C274.248 147.461 274.455 147.855 274.869 148.121C275.283 148.387 276.029 148.641 277.107 148.883C278.193 149.125 279.072 149.414 279.744 149.75C280.416 150.086 280.912 150.492 281.232 150.969C281.56 151.437 281.724 152.012 281.724 152.691C281.724 153.824 281.271 154.734 280.365 155.422C279.459 156.101 278.283 156.441 276.838 156.441C275.822 156.441 274.924 156.262 274.142 155.902C273.361 155.543 272.748 155.043 272.302 154.402C271.865 153.754 271.646 153.055 271.646 152.305H273.814C273.853 153.031 274.142 153.609 274.681 154.039C275.228 154.461 275.947 154.672 276.838 154.672C277.658 154.672 278.314 154.508 278.806 154.18C279.306 153.844 279.556 153.398 279.556 152.844ZM293.092 149.527V156.207H290.842V139.144H297.135C299.002 139.144 300.463 139.621 301.517 140.574C302.58 141.527 303.111 142.789 303.111 144.359C303.111 146.016 302.592 147.293 301.552 148.191C300.521 149.082 299.041 149.527 297.111 149.527H293.092ZM293.092 147.687H297.135C298.338 147.687 299.26 147.406 299.9 146.844C300.541 146.273 300.861 145.453 300.861 144.383C300.861 143.367 300.541 142.555 299.9 141.945C299.26 141.336 298.381 141.019 297.263 140.996H293.092V147.687ZM311.771 145.473C311.443 145.418 311.088 145.391 310.705 145.391C309.283 145.391 308.318 145.996 307.81 147.207V156.207H305.642V143.527H307.752L307.787 144.992C308.498 143.859 309.506 143.293 310.81 143.293C311.232 143.293 311.552 143.348 311.771 143.457V145.473ZM312.967 149.75C312.967 148.508 313.209 147.391 313.693 146.398C314.185 145.406 314.865 144.641 315.732 144.101C316.607 143.562 317.603 143.293 318.72 143.293C320.447 143.293 321.842 143.891 322.904 145.086C323.974 146.281 324.51 147.871 324.51 149.855V150.008C324.51 151.242 324.271 152.351 323.795 153.336C323.326 154.312 322.65 155.074 321.767 155.621C320.892 156.168 319.885 156.441 318.744 156.441C317.025 156.441 315.631 155.844 314.56 154.648C313.498 153.453 312.967 151.871 312.967 149.902V149.75ZM315.146 150.008C315.146 151.414 315.47 152.543 316.119 153.394C316.775 154.246 317.65 154.672 318.744 154.672C319.845 154.672 320.72 154.242 321.369 153.383C322.017 152.516 322.342 151.305 322.342 149.75C322.342 148.359 322.01 147.234 321.345 146.375C320.689 145.508 319.814 145.074 318.72 145.074C317.65 145.074 316.787 145.5 316.131 146.351C315.474 147.203 315.146 148.422 315.146 150.008ZM326.713 149.762C326.713 147.785 327.17 146.215 328.084 145.051C328.998 143.879 330.209 143.293 331.717 143.293C333.263 143.293 334.47 143.84 335.338 144.933L335.443 143.527H337.424V155.902C337.424 157.543 336.935 158.836 335.959 159.781C334.99 160.726 333.685 161.199 332.045 161.199C331.131 161.199 330.236 161.004 329.361 160.613C328.486 160.223 327.818 159.687 327.357 159.008L328.482 157.707C329.412 158.855 330.549 159.43 331.892 159.43C332.947 159.43 333.767 159.133 334.353 158.539C334.947 157.945 335.244 157.109 335.244 156.031V154.941C334.377 155.941 333.193 156.441 331.693 156.441C330.209 156.441 329.006 155.844 328.084 154.648C327.17 153.453 326.713 151.824 326.713 149.762ZM328.892 150.008C328.892 151.437 329.185 152.562 329.771 153.383C330.357 154.195 331.177 154.601 332.232 154.601C333.599 154.601 334.603 153.98 335.244 152.738V146.949C334.58 145.738 333.584 145.133 332.256 145.133C331.201 145.133 330.377 145.543 329.783 146.363C329.189 147.183 328.892 148.398 328.892 150.008ZM346.834 145.473C346.506 145.418 346.15 145.391 345.767 145.391C344.345 145.391 343.381 145.996 342.873 147.207V156.207H340.705V143.527H342.814L342.849 144.992C343.56 143.859 344.568 143.293 345.873 143.293C346.295 143.293 346.615 143.348 346.834 143.457V145.473ZM356.197 156.207C356.072 155.957 355.97 155.512 355.892 154.871C354.885 155.918 353.681 156.441 352.283 156.441C351.033 156.441 350.006 156.09 349.201 155.387C348.404 154.676 348.006 153.777 348.006 152.691C348.006 151.371 348.506 150.348 349.506 149.621C350.513 148.887 351.927 148.519 353.748 148.519H355.857V147.523C355.857 146.766 355.631 146.164 355.177 145.719C354.724 145.266 354.056 145.039 353.174 145.039C352.4 145.039 351.752 145.234 351.228 145.625C350.705 146.016 350.443 146.488 350.443 147.043H348.263C348.263 146.41 348.486 145.801 348.931 145.215C349.385 144.621 349.994 144.152 350.76 143.808C351.533 143.465 352.381 143.293 353.302 143.293C354.763 143.293 355.908 143.66 356.736 144.394C357.564 145.121 357.994 146.125 358.025 147.406V153.242C358.025 154.406 358.174 155.332 358.47 156.019V156.207H356.197ZM352.599 154.555C353.279 154.555 353.924 154.379 354.533 154.027C355.142 153.676 355.584 153.219 355.857 152.656V150.055H354.158C351.502 150.055 350.174 150.832 350.174 152.387C350.174 153.066 350.4 153.598 350.853 153.98C351.306 154.363 351.888 154.555 352.599 154.555ZM363.463 143.527L363.521 144.933C364.451 143.84 365.705 143.293 367.283 143.293C369.056 143.293 370.263 143.973 370.904 145.332C371.326 144.723 371.873 144.23 372.545 143.855C373.224 143.48 374.025 143.293 374.947 143.293C377.728 143.293 379.142 144.766 379.189 147.711V156.207H377.021V147.84C377.021 146.933 376.814 146.258 376.4 145.812C375.986 145.359 375.291 145.133 374.314 145.133C373.51 145.133 372.842 145.375 372.31 145.859C371.779 146.336 371.47 146.98 371.385 147.793V156.207H369.205V147.898C369.205 146.055 368.302 145.133 366.498 145.133C365.076 145.133 364.103 145.738 363.58 146.949V156.207H361.412V143.527H363.463ZM384.51 143.527L384.568 144.933C385.498 143.84 386.752 143.293 388.33 143.293C390.103 143.293 391.31 143.973 391.951 145.332C392.373 144.723 392.92 144.23 393.592 143.855C394.271 143.48 395.072 143.293 395.994 143.293C398.775 143.293 400.189 144.766 400.236 147.711V156.207H398.068V147.84C398.068 146.933 397.861 146.258 397.447 145.812C397.033 145.359 396.338 145.133 395.361 145.133C394.556 145.133 393.888 145.375 393.357 145.859C392.826 146.336 392.517 146.98 392.431 147.793V156.207H390.252V147.898C390.252 146.055 389.349 145.133 387.545 145.133C386.123 145.133 385.15 145.738 384.627 146.949V156.207H382.459V143.527H384.51ZM405.873 156.207H403.705V143.527H405.873V156.207ZM403.529 140.164C403.529 139.812 403.635 139.516 403.845 139.273C404.064 139.031 404.385 138.91 404.806 138.91C405.228 138.91 405.549 139.031 405.767 139.273C405.986 139.516 406.095 139.812 406.095 140.164C406.095 140.516 405.986 140.808 405.767 141.043C405.549 141.277 405.228 141.394 404.806 141.394C404.385 141.394 404.064 141.277 403.845 141.043C403.635 140.808 403.529 140.516 403.529 140.164ZM411.404 143.527L411.474 145.121C412.443 143.902 413.709 143.293 415.271 143.293C417.951 143.293 419.302 144.805 419.326 147.828V156.207H417.158V147.816C417.15 146.902 416.939 146.226 416.525 145.789C416.119 145.351 415.482 145.133 414.615 145.133C413.912 145.133 413.295 145.32 412.763 145.695C412.232 146.07 411.818 146.562 411.521 147.172V156.207H409.353V143.527H411.404ZM422.08 149.762C422.08 147.785 422.537 146.215 423.451 145.051C424.365 143.879 425.576 143.293 427.084 143.293C428.631 143.293 429.838 143.84 430.705 144.933L430.81 143.527H432.791V155.902C432.791 157.543 432.302 158.836 431.326 159.781C430.357 160.726 429.052 161.199 427.412 161.199C426.498 161.199 425.603 161.004 424.728 160.613C423.853 160.223 423.185 159.687 422.724 159.008L423.849 157.707C424.779 158.855 425.916 159.43 427.26 159.43C428.314 159.43 429.135 159.133 429.72 158.539C430.314 157.945 430.611 157.109 430.611 156.031V154.941C429.744 155.941 428.56 156.441 427.06 156.441C425.576 156.441 424.373 155.844 423.451 154.648C422.537 153.453 422.08 151.824 422.08 149.762ZM424.26 150.008C424.26 151.437 424.552 152.562 425.138 153.383C425.724 154.195 426.545 154.601 427.599 154.601C428.967 154.601 429.97 153.98 430.611 152.738V146.949C429.947 145.738 428.951 145.133 427.623 145.133C426.568 145.133 425.744 145.543 425.15 146.363C424.556 147.183 424.26 148.398 424.26 150.008Z" fill="black"/>
<line y1="-0.5" x2="754.001" y2="-0.5" transform="matrix(0.999999 -0.0016159 0.00185237 0.999998 0 200.218)" stroke="#DDDDDD"/>
<line y1="-0.5" x2="754.001" y2="-0.5" transform="matrix(0.999999 -0.0016159 0.00185237 0.999998 0 305)" stroke="#DDDDDD"/>
<path d="M48.7407 255.125H50.8618V257.41H48.7407V261.207H45.8931V257.41H38.522L38.4399 255.676L45.7993 244.144H48.7407V255.125ZM41.4282 255.125H45.8931V248L45.6821 248.375L41.4282 255.125ZM60.4595 261.207H57.6235V247.508L53.4399 248.937V246.535L60.0962 244.086H60.4595V261.207ZM77.5103 254.023C77.5103 256.476 77.0493 258.328 76.1274 259.578C75.2134 260.82 73.8188 261.441 71.9438 261.441C70.1001 261.441 68.7095 260.836 67.772 259.625C66.8423 258.406 66.3657 256.605 66.3423 254.223V251.269C66.3423 248.816 66.7993 246.976 67.7134 245.75C68.6353 244.523 70.0376 243.91 71.9204 243.91C73.7876 243.91 75.1782 244.508 76.0923 245.703C77.0142 246.898 77.4868 248.687 77.5103 251.07V254.023ZM74.6626 250.836C74.6626 249.234 74.4438 248.062 74.0063 247.32C73.5688 246.57 72.8735 246.195 71.9204 246.195C70.9907 246.195 70.3071 246.551 69.8696 247.262C69.4321 247.965 69.2017 249.066 69.1782 250.566V254.433C69.1782 256.027 69.4009 257.215 69.8462 257.996C70.2915 258.777 70.9907 259.168 71.9438 259.168C72.8579 259.168 73.5337 258.808 73.9712 258.09C74.4087 257.363 74.6392 256.23 74.6626 254.691V250.836ZM88.104 254.07C87.1509 255.078 86.0376 255.582 84.7642 255.582C83.2642 255.582 82.0688 255.058 81.1782 254.012C80.2876 252.957 79.8423 251.574 79.8423 249.863C79.8423 248.738 80.0688 247.719 80.522 246.805C80.9751 245.891 81.6196 245.18 82.4556 244.672C83.2915 244.164 84.2603 243.91 85.3618 243.91C87.0806 243.91 88.4438 244.551 89.4517 245.832C90.4595 247.113 90.9634 248.828 90.9634 250.976V251.773C90.9634 254.851 90.2681 257.199 88.8774 258.816C87.4868 260.433 85.4126 261.254 82.6548 261.277H82.3149V258.922H82.7251C84.4048 258.898 85.6938 258.496 86.5923 257.715C87.4907 256.926 87.9946 255.711 88.104 254.07ZM85.3618 253.355C85.9321 253.355 86.4673 253.191 86.9673 252.863C87.4673 252.535 87.854 252.082 88.1274 251.504V250.391C88.1274 249.133 87.8696 248.121 87.354 247.355C86.8384 246.59 86.1704 246.207 85.3501 246.207C84.5298 246.207 83.8735 246.547 83.3813 247.226C82.897 247.898 82.6548 248.75 82.6548 249.781C82.6548 250.851 82.9009 251.715 83.3931 252.371C83.8853 253.027 84.5415 253.355 85.3618 253.355ZM96.9634 251.375H98.6978C99.5728 251.367 100.264 251.141 100.772 250.695C101.288 250.25 101.545 249.605 101.545 248.762C101.545 247.949 101.331 247.32 100.901 246.875C100.479 246.422 99.8306 246.195 98.9556 246.195C98.1899 246.195 97.561 246.418 97.0688 246.863C96.5767 247.301 96.3306 247.875 96.3306 248.586H93.4829C93.4829 247.711 93.7134 246.914 94.1743 246.195C94.6431 245.476 95.2915 244.918 96.1196 244.519C96.9556 244.113 97.8892 243.91 98.9204 243.91C100.624 243.91 101.959 244.34 102.928 245.199C103.905 246.051 104.393 247.238 104.393 248.762C104.393 249.527 104.147 250.25 103.655 250.93C103.17 251.601 102.542 252.109 101.768 252.453C102.706 252.773 103.417 253.277 103.901 253.965C104.393 254.652 104.639 255.473 104.639 256.426C104.639 257.957 104.112 259.176 103.057 260.082C102.01 260.988 100.631 261.441 98.9204 261.441C97.2798 261.441 95.936 261.004 94.8892 260.129C93.8423 259.254 93.3188 258.09 93.3188 256.637H96.1665C96.1665 257.387 96.4165 257.996 96.9165 258.465C97.4243 258.933 98.104 259.168 98.9556 259.168C99.8384 259.168 100.534 258.933 101.042 258.465C101.549 257.996 101.803 257.316 101.803 256.426C101.803 255.527 101.538 254.836 101.006 254.351C100.475 253.867 99.686 253.625 98.6392 253.625H96.9634V251.375Z" fill="#4259D4"/>
<path d="M157.025 253.601C155.095 253.047 153.689 252.367 152.806 251.562C151.931 250.75 151.494 249.75 151.494 248.562C151.494 247.219 152.029 246.109 153.099 245.234C154.177 244.351 155.576 243.91 157.295 243.91C158.467 243.91 159.51 244.137 160.424 244.59C161.345 245.043 162.056 245.668 162.556 246.465C163.064 247.262 163.318 248.133 163.318 249.078H161.056C161.056 248.047 160.728 247.238 160.072 246.652C159.416 246.058 158.49 245.762 157.295 245.762C156.185 245.762 155.318 246.008 154.693 246.5C154.076 246.984 153.767 247.66 153.767 248.527C153.767 249.223 154.06 249.812 154.646 250.297C155.24 250.773 156.244 251.211 157.658 251.609C159.08 252.008 160.189 252.449 160.986 252.933C161.791 253.41 162.385 253.969 162.767 254.609C163.158 255.25 163.353 256.004 163.353 256.871C163.353 258.254 162.814 259.363 161.736 260.199C160.658 261.027 159.217 261.441 157.412 261.441C156.24 261.441 155.146 261.219 154.131 260.773C153.115 260.32 152.33 259.703 151.775 258.922C151.228 258.141 150.955 257.254 150.955 256.262H153.217C153.217 257.293 153.595 258.109 154.353 258.711C155.119 259.305 156.138 259.601 157.412 259.601C158.599 259.601 159.51 259.359 160.142 258.875C160.775 258.391 161.092 257.73 161.092 256.894C161.092 256.058 160.799 255.414 160.213 254.961C159.627 254.5 158.564 254.047 157.025 253.601ZM165.334 254.75C165.334 253.508 165.576 252.391 166.06 251.398C166.552 250.406 167.232 249.641 168.099 249.101C168.974 248.562 169.97 248.293 171.088 248.293C172.814 248.293 174.209 248.891 175.271 250.086C176.342 251.281 176.877 252.871 176.877 254.855V255.008C176.877 256.242 176.638 257.351 176.162 258.336C175.693 259.312 175.017 260.074 174.135 260.621C173.26 261.168 172.252 261.441 171.111 261.441C169.392 261.441 167.998 260.844 166.927 259.648C165.865 258.453 165.334 256.871 165.334 254.902V254.75ZM167.513 255.008C167.513 256.414 167.838 257.543 168.486 258.394C169.142 259.246 170.017 259.672 171.111 259.672C172.213 259.672 173.088 259.242 173.736 258.383C174.385 257.516 174.709 256.305 174.709 254.75C174.709 253.359 174.377 252.234 173.713 251.375C173.056 250.508 172.181 250.074 171.088 250.074C170.017 250.074 169.154 250.5 168.498 251.351C167.842 252.203 167.513 253.422 167.513 255.008ZM180.662 261.207V250.203H178.658V248.527H180.662V247.226C180.662 245.867 181.025 244.816 181.752 244.074C182.478 243.332 183.506 242.961 184.834 242.961C185.334 242.961 185.83 243.027 186.322 243.16L186.205 244.918C185.838 244.848 185.447 244.812 185.033 244.812C184.33 244.812 183.787 245.019 183.404 245.433C183.021 245.84 182.83 246.426 182.83 247.191V248.527H185.537V250.203H182.83V261.207H180.662ZM190.881 245.457V248.527H193.248V250.203H190.881V258.066C190.881 258.574 190.986 258.957 191.197 259.215C191.408 259.465 191.767 259.59 192.275 259.59C192.525 259.59 192.869 259.543 193.306 259.449V261.207C192.736 261.363 192.181 261.441 191.642 261.441C190.674 261.441 189.943 261.148 189.451 260.562C188.959 259.976 188.713 259.144 188.713 258.066V250.203H186.404V248.527H188.713V245.457H190.881ZM207.017 258.219L209.455 248.527H211.623L207.931 261.207H206.174L203.092 251.598L200.092 261.207H198.334L194.654 248.527H196.81L199.306 258.019L202.26 248.527H204.006L207.017 258.219ZM221.666 261.207C221.541 260.957 221.439 260.512 221.361 259.871C220.353 260.918 219.15 261.441 217.752 261.441C216.502 261.441 215.474 261.09 214.67 260.387C213.873 259.676 213.474 258.777 213.474 257.691C213.474 256.371 213.974 255.348 214.974 254.621C215.982 253.887 217.396 253.519 219.217 253.519H221.326V252.523C221.326 251.766 221.099 251.164 220.646 250.719C220.193 250.266 219.525 250.039 218.642 250.039C217.869 250.039 217.22 250.234 216.697 250.625C216.174 251.016 215.912 251.488 215.912 252.043H213.732C213.732 251.41 213.955 250.801 214.4 250.215C214.853 249.621 215.463 249.152 216.228 248.808C217.002 248.465 217.849 248.293 218.771 248.293C220.232 248.293 221.377 248.66 222.205 249.394C223.033 250.121 223.463 251.125 223.494 252.406V258.242C223.494 259.406 223.642 260.332 223.939 261.019V261.207H221.666ZM218.068 259.555C218.748 259.555 219.392 259.379 220.002 259.027C220.611 258.676 221.052 258.219 221.326 257.656V255.055H219.627C216.97 255.055 215.642 255.832 215.642 257.387C215.642 258.066 215.869 258.598 216.322 258.98C216.775 259.363 217.357 259.555 218.068 259.555ZM233.021 250.473C232.693 250.418 232.338 250.391 231.955 250.391C230.533 250.391 229.568 250.996 229.06 252.207V261.207H226.892V248.527H229.002L229.037 249.992C229.748 248.859 230.756 248.293 232.06 248.293C232.482 248.293 232.802 248.348 233.021 248.457V250.473ZM240.052 261.441C238.334 261.441 236.935 260.879 235.857 259.754C234.779 258.621 234.24 257.109 234.24 255.219V254.82C234.24 253.562 234.478 252.441 234.955 251.457C235.439 250.465 236.111 249.691 236.97 249.137C237.838 248.574 238.775 248.293 239.783 248.293C241.431 248.293 242.713 248.836 243.627 249.922C244.541 251.008 244.998 252.562 244.998 254.586V255.488H236.408C236.439 256.738 236.802 257.75 237.498 258.523C238.201 259.289 239.092 259.672 240.17 259.672C240.935 259.672 241.584 259.516 242.115 259.203C242.646 258.891 243.111 258.476 243.51 257.961L244.834 258.992C243.771 260.625 242.177 261.441 240.052 261.441ZM239.783 250.074C238.908 250.074 238.174 250.394 237.58 251.035C236.986 251.668 236.619 252.558 236.478 253.707H242.83V253.543C242.767 252.441 242.47 251.59 241.939 250.988C241.408 250.379 240.689 250.074 239.783 250.074ZM263.455 253.32H256.06V259.367H264.65V261.207H253.81V244.144H264.533V245.996H256.06V251.48H263.455V253.32ZM269.162 248.527L269.232 250.121C270.201 248.902 271.467 248.293 273.029 248.293C275.709 248.293 277.06 249.805 277.084 252.828V261.207H274.916V252.816C274.908 251.902 274.697 251.226 274.283 250.789C273.877 250.351 273.24 250.133 272.373 250.133C271.67 250.133 271.052 250.32 270.521 250.695C269.99 251.07 269.576 251.562 269.279 252.172V261.207H267.111V248.527H269.162ZM279.838 254.762C279.838 252.785 280.295 251.215 281.209 250.051C282.123 248.879 283.334 248.293 284.842 248.293C286.388 248.293 287.595 248.84 288.463 249.933L288.568 248.527H290.549V260.902C290.549 262.543 290.06 263.836 289.084 264.781C288.115 265.726 286.81 266.199 285.17 266.199C284.256 266.199 283.361 266.004 282.486 265.613C281.611 265.223 280.943 264.687 280.482 264.008L281.607 262.707C282.537 263.855 283.674 264.43 285.017 264.43C286.072 264.43 286.892 264.133 287.478 263.539C288.072 262.945 288.369 262.109 288.369 261.031V259.941C287.502 260.941 286.318 261.441 284.818 261.441C283.334 261.441 282.131 260.844 281.209 259.648C280.295 258.453 279.838 256.824 279.838 254.762ZM282.017 255.008C282.017 256.437 282.31 257.562 282.896 258.383C283.482 259.195 284.302 259.601 285.357 259.601C286.724 259.601 287.728 258.98 288.369 257.738V251.949C287.705 250.738 286.709 250.133 285.381 250.133C284.326 250.133 283.502 250.543 282.908 251.363C282.314 252.183 282.017 253.398 282.017 255.008ZM296.185 261.207H294.017V248.527H296.185V261.207ZM293.842 245.164C293.842 244.812 293.947 244.516 294.158 244.273C294.377 244.031 294.697 243.91 295.119 243.91C295.541 243.91 295.861 244.031 296.08 244.273C296.299 244.516 296.408 244.812 296.408 245.164C296.408 245.516 296.299 245.808 296.08 246.043C295.861 246.277 295.541 246.394 295.119 246.394C294.697 246.394 294.377 246.277 294.158 246.043C293.947 245.808 293.842 245.516 293.842 245.164ZM301.717 248.527L301.787 250.121C302.756 248.902 304.021 248.293 305.584 248.293C308.263 248.293 309.615 249.805 309.638 252.828V261.207H307.47V252.816C307.463 251.902 307.252 251.226 306.838 250.789C306.431 250.351 305.795 250.133 304.927 250.133C304.224 250.133 303.607 250.32 303.076 250.695C302.545 251.07 302.131 251.562 301.834 252.172V261.207H299.666V248.527H301.717ZM318.17 261.441C316.451 261.441 315.052 260.879 313.974 259.754C312.896 258.621 312.357 257.109 312.357 255.219V254.82C312.357 253.562 312.595 252.441 313.072 251.457C313.556 250.465 314.228 249.691 315.088 249.137C315.955 248.574 316.892 248.293 317.9 248.293C319.549 248.293 320.83 248.836 321.744 249.922C322.658 251.008 323.115 252.562 323.115 254.586V255.488H314.525C314.556 256.738 314.92 257.75 315.615 258.523C316.318 259.289 317.209 259.672 318.287 259.672C319.052 259.672 319.701 259.516 320.232 259.203C320.763 258.891 321.228 258.476 321.627 257.961L322.951 258.992C321.888 260.625 320.295 261.441 318.17 261.441ZM317.9 250.074C317.025 250.074 316.291 250.394 315.697 251.035C315.103 251.668 314.736 252.558 314.595 253.707H320.947V253.543C320.885 252.441 320.588 251.59 320.056 250.988C319.525 250.379 318.806 250.074 317.9 250.074ZM330.896 261.441C329.177 261.441 327.779 260.879 326.701 259.754C325.623 258.621 325.084 257.109 325.084 255.219V254.82C325.084 253.562 325.322 252.441 325.799 251.457C326.283 250.465 326.955 249.691 327.814 249.137C328.681 248.574 329.619 248.293 330.627 248.293C332.275 248.293 333.556 248.836 334.47 249.922C335.385 251.008 335.842 252.562 335.842 254.586V255.488H327.252C327.283 256.738 327.646 257.75 328.342 258.523C329.045 259.289 329.935 259.672 331.013 259.672C331.779 259.672 332.427 259.516 332.959 259.203C333.49 258.891 333.955 258.476 334.353 257.961L335.677 258.992C334.615 260.625 333.021 261.441 330.896 261.441ZM330.627 250.074C329.752 250.074 329.017 250.394 328.424 251.035C327.83 251.668 327.463 252.558 327.322 253.707H333.674V253.543C333.611 252.441 333.314 251.59 332.783 250.988C332.252 250.379 331.533 250.074 330.627 250.074ZM344.49 250.473C344.162 250.418 343.806 250.391 343.424 250.391C342.002 250.391 341.037 250.996 340.529 252.207V261.207H338.361V248.527H340.47L340.506 249.992C341.217 248.859 342.224 248.293 343.529 248.293C343.951 248.293 344.271 248.348 344.49 248.457V250.473ZM348.849 261.207H346.681V248.527H348.849V261.207ZM346.506 245.164C346.506 244.812 346.611 244.516 346.822 244.273C347.041 244.031 347.361 243.91 347.783 243.91C348.205 243.91 348.525 244.031 348.744 244.273C348.963 244.516 349.072 244.812 349.072 245.164C349.072 245.516 348.963 245.808 348.744 246.043C348.525 246.277 348.205 246.394 347.783 246.394C347.361 246.394 347.041 246.277 346.822 246.043C346.611 245.808 346.506 245.516 346.506 245.164ZM354.381 248.527L354.451 250.121C355.42 248.902 356.685 248.293 358.248 248.293C360.927 248.293 362.279 249.805 362.302 252.828V261.207H360.135V252.816C360.127 251.902 359.916 251.226 359.502 250.789C359.095 250.351 358.459 250.133 357.592 250.133C356.888 250.133 356.271 250.32 355.74 250.695C355.209 251.07 354.795 251.562 354.498 252.172V261.207H352.33V248.527H354.381ZM365.056 254.762C365.056 252.785 365.513 251.215 366.427 250.051C367.342 248.879 368.552 248.293 370.06 248.293C371.607 248.293 372.814 248.84 373.681 249.933L373.787 248.527H375.767V260.902C375.767 262.543 375.279 263.836 374.302 264.781C373.334 265.726 372.029 266.199 370.388 266.199C369.474 266.199 368.58 266.004 367.705 265.613C366.83 265.223 366.162 264.687 365.701 264.008L366.826 262.707C367.756 263.855 368.892 264.43 370.236 264.43C371.291 264.43 372.111 264.133 372.697 263.539C373.291 262.945 373.588 262.109 373.588 261.031V259.941C372.72 260.941 371.537 261.441 370.037 261.441C368.552 261.441 367.349 260.844 366.427 259.648C365.513 258.453 365.056 256.824 365.056 254.762ZM367.236 255.008C367.236 256.437 367.529 257.562 368.115 258.383C368.701 259.195 369.521 259.601 370.576 259.601C371.943 259.601 372.947 258.98 373.588 257.738V251.949C372.924 250.738 371.927 250.133 370.599 250.133C369.545 250.133 368.72 250.543 368.127 251.363C367.533 252.183 367.236 253.398 367.236 255.008ZM390.369 253.601C388.439 253.047 387.033 252.367 386.15 251.562C385.275 250.75 384.838 249.75 384.838 248.562C384.838 247.219 385.373 246.109 386.443 245.234C387.521 244.351 388.92 243.91 390.638 243.91C391.81 243.91 392.853 244.137 393.767 244.59C394.689 245.043 395.4 245.668 395.9 246.465C396.408 247.262 396.662 248.133 396.662 249.078H394.4C394.4 248.047 394.072 247.238 393.416 246.652C392.76 246.058 391.834 245.762 390.638 245.762C389.529 245.762 388.662 246.008 388.037 246.5C387.42 246.984 387.111 247.66 387.111 248.527C387.111 249.223 387.404 249.812 387.99 250.297C388.584 250.773 389.588 251.211 391.002 251.609C392.424 252.008 393.533 252.449 394.33 252.933C395.135 253.41 395.728 253.969 396.111 254.609C396.502 255.25 396.697 256.004 396.697 256.871C396.697 258.254 396.158 259.363 395.08 260.199C394.002 261.027 392.56 261.441 390.756 261.441C389.584 261.441 388.49 261.219 387.474 260.773C386.459 260.32 385.674 259.703 385.119 258.922C384.572 258.141 384.299 257.254 384.299 256.262H386.56C386.56 257.293 386.939 258.109 387.697 258.711C388.463 259.305 389.482 259.601 390.756 259.601C391.943 259.601 392.853 259.359 393.486 258.875C394.119 258.391 394.435 257.73 394.435 256.894C394.435 256.058 394.142 255.414 393.556 254.961C392.97 254.5 391.908 254.047 390.369 253.601ZM402.193 245.457V248.527H404.56V250.203H402.193V258.066C402.193 258.574 402.299 258.957 402.51 259.215C402.72 259.465 403.08 259.59 403.588 259.59C403.838 259.59 404.181 259.543 404.619 259.449V261.207C404.049 261.363 403.494 261.441 402.955 261.441C401.986 261.441 401.256 261.148 400.763 260.562C400.271 259.976 400.025 259.144 400.025 258.066V250.203H397.717V248.527H400.025V245.457H402.193ZM414.931 259.953C414.088 260.945 412.849 261.441 411.217 261.441C409.865 261.441 408.834 261.051 408.123 260.269C407.42 259.48 407.064 258.316 407.056 256.777V248.527H409.224V256.719C409.224 258.641 410.006 259.601 411.568 259.601C413.224 259.601 414.326 258.984 414.873 257.75V248.527H417.041V261.207H414.978L414.931 259.953ZM419.818 254.762C419.818 252.816 420.279 251.254 421.201 250.074C422.123 248.887 423.33 248.293 424.822 248.293C426.306 248.293 427.482 248.801 428.349 249.816V243.207H430.517V261.207H428.525L428.42 259.848C427.552 260.91 426.345 261.441 424.799 261.441C423.33 261.441 422.131 260.84 421.201 259.637C420.279 258.433 419.818 256.863 419.818 254.926V254.762ZM421.986 255.008C421.986 256.445 422.283 257.57 422.877 258.383C423.47 259.195 424.291 259.601 425.338 259.601C426.713 259.601 427.717 258.984 428.349 257.75V251.926C427.701 250.73 426.705 250.133 425.361 250.133C424.299 250.133 423.47 250.543 422.877 251.363C422.283 252.183 421.986 253.398 421.986 255.008ZM436.248 261.207H434.08V248.527H436.248V261.207ZM433.904 245.164C433.904 244.812 434.01 244.516 434.22 244.273C434.439 244.031 434.76 243.91 435.181 243.91C435.603 243.91 435.924 244.031 436.142 244.273C436.361 244.516 436.47 244.812 436.47 245.164C436.47 245.516 436.361 245.808 436.142 246.043C435.924 246.277 435.603 246.394 435.181 246.394C434.76 246.394 434.439 246.277 434.22 246.043C434.01 245.808 433.904 245.516 433.904 245.164ZM439.154 254.75C439.154 253.508 439.396 252.391 439.881 251.398C440.373 250.406 441.052 249.641 441.92 249.101C442.795 248.562 443.791 248.293 444.908 248.293C446.635 248.293 448.029 248.891 449.092 250.086C450.162 251.281 450.697 252.871 450.697 254.855V255.008C450.697 256.242 450.459 257.351 449.982 258.336C449.513 259.312 448.838 260.074 447.955 260.621C447.08 261.168 446.072 261.441 444.931 261.441C443.213 261.441 441.818 260.844 440.748 259.648C439.685 258.453 439.154 256.871 439.154 254.902V254.75ZM441.334 255.008C441.334 256.414 441.658 257.543 442.306 258.394C442.963 259.246 443.838 259.672 444.931 259.672C446.033 259.672 446.908 259.242 447.556 258.383C448.205 257.516 448.529 256.305 448.529 254.75C448.529 253.359 448.197 252.234 447.533 251.375C446.877 250.508 446.002 250.074 444.908 250.074C443.838 250.074 442.974 250.5 442.318 251.351C441.662 252.203 441.334 253.422 441.334 255.008ZM466.271 261.207H464.092V246.758L459.72 248.363V246.394L465.931 244.062H466.271V261.207ZM482.607 256.754H475.459L473.853 261.207H471.533L478.049 244.144H480.017L486.545 261.207H484.236L482.607 256.754ZM476.138 254.902H481.939L479.033 246.922L476.138 254.902Z" fill="black"/>
<line y1="-0.5" x2="754.001" y2="-0.5" transform="matrix(0.999999 -0.0016159 0.00185237 0.999998 0 305.218)" stroke="#DDDDDD"/>
<line y1="-0.5" x2="754.001" y2="-0.5" transform="matrix(0.999999 -0.0016159 0.00185237 0.999998 0 410)" stroke="#DDDDDD"/>
<path d="M48.7407 360.125H50.8618V362.41H48.7407V366.207H45.8931V362.41H38.522L38.4399 360.676L45.7993 349.144H48.7407V360.125ZM41.4282 360.125H45.8931V353L45.6821 353.375L41.4282 360.125ZM63.4946 353.644C63.4946 354.48 63.2798 355.226 62.8501 355.883C62.4204 356.531 61.8345 357.043 61.0923 357.418C61.9829 357.832 62.6665 358.398 63.1431 359.117C63.6274 359.836 63.8696 360.648 63.8696 361.555C63.8696 363.055 63.3618 364.246 62.3462 365.129C61.3306 366.004 59.979 366.441 58.2915 366.441C56.5962 366.441 55.2368 366 54.2134 365.117C53.1978 364.234 52.6899 363.047 52.6899 361.555C52.6899 360.641 52.9321 359.82 53.4165 359.094C53.9009 358.367 54.5806 357.808 55.4556 357.418C54.7212 357.043 54.1392 356.531 53.7095 355.883C53.2876 355.226 53.0767 354.48 53.0767 353.644C53.0767 352.191 53.5454 351.039 54.4829 350.187C55.4204 349.336 56.686 348.91 58.2798 348.91C59.8813 348.91 61.1509 349.336 62.0884 350.187C63.0259 351.039 63.4946 352.191 63.4946 353.644ZM61.022 361.414C61.022 360.57 60.7681 359.891 60.2603 359.375C59.7603 358.851 59.0962 358.59 58.2681 358.59C57.4399 358.59 56.7759 358.848 56.2759 359.363C55.7837 359.879 55.5376 360.562 55.5376 361.414C55.5376 362.25 55.7798 362.918 56.2642 363.418C56.7563 363.918 57.4321 364.168 58.2915 364.168C59.1509 364.168 59.8188 363.926 60.2954 363.441C60.7798 362.957 61.022 362.281 61.022 361.414ZM60.6587 353.75C60.6587 353.008 60.4438 352.398 60.0142 351.922C59.5845 351.437 59.0063 351.195 58.2798 351.195C57.5532 351.195 56.979 351.426 56.5571 351.887C56.1353 352.34 55.9243 352.961 55.9243 353.75C55.9243 354.531 56.1353 355.152 56.5571 355.613C56.9868 356.074 57.5649 356.305 58.2915 356.305C59.0181 356.305 59.5923 356.074 60.0142 355.613C60.4438 355.152 60.6587 354.531 60.6587 353.75ZM76.022 360.125H78.1431V362.41H76.022V366.207H73.1743V362.41H65.8032L65.7212 360.676L73.0806 349.144H76.022V360.125ZM68.7095 360.125H73.1743V353L72.9634 353.375L68.7095 360.125ZM83.3228 356.375H85.0571C85.9321 356.367 86.6235 356.141 87.1313 355.695C87.647 355.25 87.9048 354.605 87.9048 353.762C87.9048 352.949 87.6899 352.32 87.2603 351.875C86.8384 351.422 86.1899 351.195 85.3149 351.195C84.5493 351.195 83.9204 351.418 83.4282 351.863C82.936 352.301 82.6899 352.875 82.6899 353.586H79.8423C79.8423 352.711 80.0728 351.914 80.5337 351.195C81.0024 350.476 81.6509 349.918 82.479 349.519C83.3149 349.113 84.2485 348.91 85.2798 348.91C86.9829 348.91 88.3188 349.34 89.2876 350.199C90.2642 351.051 90.7524 352.238 90.7524 353.762C90.7524 354.527 90.5063 355.25 90.0142 355.93C89.5298 356.601 88.9009 357.109 88.1274 357.453C89.0649 357.773 89.7759 358.277 90.2603 358.965C90.7524 359.652 90.9985 360.473 90.9985 361.426C90.9985 362.957 90.4712 364.176 89.4165 365.082C88.3696 365.988 86.9907 366.441 85.2798 366.441C83.6392 366.441 82.2954 366.004 81.2485 365.129C80.2017 364.254 79.6782 363.09 79.6782 361.637H82.5259C82.5259 362.387 82.7759 362.996 83.2759 363.465C83.7837 363.933 84.4634 364.168 85.3149 364.168C86.1978 364.168 86.8931 363.933 87.4009 363.465C87.9087 362.996 88.1626 362.316 88.1626 361.426C88.1626 360.527 87.897 359.836 87.3657 359.351C86.8345 358.867 86.0454 358.625 84.9985 358.625H83.3228V356.375ZM96.9634 356.375H98.6978C99.5728 356.367 100.264 356.141 100.772 355.695C101.288 355.25 101.545 354.605 101.545 353.762C101.545 352.949 101.331 352.32 100.901 351.875C100.479 351.422 99.8306 351.195 98.9556 351.195C98.1899 351.195 97.561 351.418 97.0688 351.863C96.5767 352.301 96.3306 352.875 96.3306 353.586H93.4829C93.4829 352.711 93.7134 351.914 94.1743 351.195C94.6431 350.476 95.2915 349.918 96.1196 349.519C96.9556 349.113 97.8892 348.91 98.9204 348.91C100.624 348.91 101.959 349.34 102.928 350.199C103.905 351.051 104.393 352.238 104.393 353.762C104.393 354.527 104.147 355.25 103.655 355.93C103.17 356.601 102.542 357.109 101.768 357.453C102.706 357.773 103.417 358.277 103.901 358.965C104.393 359.652 104.639 360.473 104.639 361.426C104.639 362.957 104.112 364.176 103.057 365.082C102.01 365.988 100.631 366.441 98.9204 366.441C97.2798 366.441 95.936 366.004 94.8892 365.129C93.8423 364.254 93.3188 363.09 93.3188 361.637H96.1665C96.1665 362.387 96.4165 362.996 96.9165 363.465C97.4243 363.933 98.104 364.168 98.9556 364.168C99.8384 364.168 100.534 363.933 101.042 363.465C101.549 362.996 101.803 362.316 101.803 361.426C101.803 360.527 101.538 359.836 101.006 359.351C100.475 358.867 99.686 358.625 98.6392 358.625H96.9634V356.375Z" fill="#4259D4"/>
<path d="M157.025 358.601C155.095 358.047 153.689 357.367 152.806 356.562C151.931 355.75 151.494 354.75 151.494 353.562C151.494 352.219 152.029 351.109 153.099 350.234C154.177 349.351 155.576 348.91 157.295 348.91C158.467 348.91 159.51 349.137 160.424 349.59C161.345 350.043 162.056 350.668 162.556 351.465C163.064 352.262 163.318 353.133 163.318 354.078H161.056C161.056 353.047 160.728 352.238 160.072 351.652C159.416 351.058 158.49 350.762 157.295 350.762C156.185 350.762 155.318 351.008 154.693 351.5C154.076 351.984 153.767 352.66 153.767 353.527C153.767 354.223 154.06 354.812 154.646 355.297C155.24 355.773 156.244 356.211 157.658 356.609C159.08 357.008 160.189 357.449 160.986 357.933C161.791 358.41 162.385 358.969 162.767 359.609C163.158 360.25 163.353 361.004 163.353 361.871C163.353 363.254 162.814 364.363 161.736 365.199C160.658 366.027 159.217 366.441 157.412 366.441C156.24 366.441 155.146 366.219 154.131 365.773C153.115 365.32 152.33 364.703 151.775 363.922C151.228 363.141 150.955 362.254 150.955 361.262H153.217C153.217 362.293 153.595 363.109 154.353 363.711C155.119 364.305 156.138 364.601 157.412 364.601C158.599 364.601 159.51 364.359 160.142 363.875C160.775 363.391 161.092 362.73 161.092 361.894C161.092 361.058 160.799 360.414 160.213 359.961C159.627 359.5 158.564 359.047 157.025 358.601ZM165.334 359.75C165.334 358.508 165.576 357.391 166.06 356.398C166.552 355.406 167.232 354.641 168.099 354.101C168.974 353.562 169.97 353.293 171.088 353.293C172.814 353.293 174.209 353.891 175.271 355.086C176.342 356.281 176.877 357.871 176.877 359.855V360.008C176.877 361.242 176.638 362.351 176.162 363.336C175.693 364.312 175.017 365.074 174.135 365.621C173.26 366.168 172.252 366.441 171.111 366.441C169.392 366.441 167.998 365.844 166.927 364.648C165.865 363.453 165.334 361.871 165.334 359.902V359.75ZM167.513 360.008C167.513 361.414 167.838 362.543 168.486 363.394C169.142 364.246 170.017 364.672 171.111 364.672C172.213 364.672 173.088 364.242 173.736 363.383C174.385 362.516 174.709 361.305 174.709 359.75C174.709 358.359 174.377 357.234 173.713 356.375C173.056 355.508 172.181 355.074 171.088 355.074C170.017 355.074 169.154 355.5 168.498 356.351C167.842 357.203 167.513 358.422 167.513 360.008ZM180.662 366.207V355.203H178.658V353.527H180.662V352.226C180.662 350.867 181.025 349.816 181.752 349.074C182.478 348.332 183.506 347.961 184.834 347.961C185.334 347.961 185.83 348.027 186.322 348.16L186.205 349.918C185.838 349.848 185.447 349.812 185.033 349.812C184.33 349.812 183.787 350.019 183.404 350.433C183.021 350.84 182.83 351.426 182.83 352.191V353.527H185.537V355.203H182.83V366.207H180.662ZM190.881 350.457V353.527H193.248V355.203H190.881V363.066C190.881 363.574 190.986 363.957 191.197 364.215C191.408 364.465 191.767 364.59 192.275 364.59C192.525 364.59 192.869 364.543 193.306 364.449V366.207C192.736 366.363 192.181 366.441 191.642 366.441C190.674 366.441 189.943 366.148 189.451 365.562C188.959 364.976 188.713 364.144 188.713 363.066V355.203H186.404V353.527H188.713V350.457H190.881ZM207.017 363.219L209.455 353.527H211.623L207.931 366.207H206.174L203.092 356.598L200.092 366.207H198.334L194.654 353.527H196.81L199.306 363.019L202.26 353.527H204.006L207.017 363.219ZM221.666 366.207C221.541 365.957 221.439 365.512 221.361 364.871C220.353 365.918 219.15 366.441 217.752 366.441C216.502 366.441 215.474 366.09 214.67 365.387C213.873 364.676 213.474 363.777 213.474 362.691C213.474 361.371 213.974 360.348 214.974 359.621C215.982 358.887 217.396 358.519 219.217 358.519H221.326V357.523C221.326 356.766 221.099 356.164 220.646 355.719C220.193 355.266 219.525 355.039 218.642 355.039C217.869 355.039 217.22 355.234 216.697 355.625C216.174 356.016 215.912 356.488 215.912 357.043H213.732C213.732 356.41 213.955 355.801 214.4 355.215C214.853 354.621 215.463 354.152 216.228 353.808C217.002 353.465 217.849 353.293 218.771 353.293C220.232 353.293 221.377 353.66 222.205 354.394C223.033 355.121 223.463 356.125 223.494 357.406V363.242C223.494 364.406 223.642 365.332 223.939 366.019V366.207H221.666ZM218.068 364.555C218.748 364.555 219.392 364.379 220.002 364.027C220.611 363.676 221.052 363.219 221.326 362.656V360.055H219.627C216.97 360.055 215.642 360.832 215.642 362.387C215.642 363.066 215.869 363.598 216.322 363.98C216.775 364.363 217.357 364.555 218.068 364.555ZM233.021 355.473C232.693 355.418 232.338 355.391 231.955 355.391C230.533 355.391 229.568 355.996 229.06 357.207V366.207H226.892V353.527H229.002L229.037 354.992C229.748 353.859 230.756 353.293 232.06 353.293C232.482 353.293 232.802 353.348 233.021 353.457V355.473ZM240.052 366.441C238.334 366.441 236.935 365.879 235.857 364.754C234.779 363.621 234.24 362.109 234.24 360.219V359.82C234.24 358.562 234.478 357.441 234.955 356.457C235.439 355.465 236.111 354.691 236.97 354.137C237.838 353.574 238.775 353.293 239.783 353.293C241.431 353.293 242.713 353.836 243.627 354.922C244.541 356.008 244.998 357.562 244.998 359.586V360.488H236.408C236.439 361.738 236.802 362.75 237.498 363.523C238.201 364.289 239.092 364.672 240.17 364.672C240.935 364.672 241.584 364.516 242.115 364.203C242.646 363.891 243.111 363.476 243.51 362.961L244.834 363.992C243.771 365.625 242.177 366.441 240.052 366.441ZM239.783 355.074C238.908 355.074 238.174 355.394 237.58 356.035C236.986 356.668 236.619 357.558 236.478 358.707H242.83V358.543C242.767 357.441 242.47 356.59 241.939 355.988C241.408 355.379 240.689 355.074 239.783 355.074ZM263.232 361.754H256.084L254.478 366.207H252.158L258.674 349.144H260.642L267.17 366.207H264.861L263.232 361.754ZM256.763 359.902H262.564L259.658 351.922L256.763 359.902ZM275.256 355.473C274.927 355.418 274.572 355.391 274.189 355.391C272.767 355.391 271.802 355.996 271.295 357.207V366.207H269.127V353.527H271.236L271.271 354.992C271.982 353.859 272.99 353.293 274.295 353.293C274.717 353.293 275.037 353.348 275.256 353.457V355.473ZM282.111 364.672C282.885 364.672 283.56 364.437 284.138 363.969C284.717 363.5 285.037 362.914 285.099 362.211H287.15C287.111 362.937 286.861 363.629 286.4 364.285C285.939 364.941 285.322 365.465 284.549 365.855C283.783 366.246 282.97 366.441 282.111 366.441C280.385 366.441 279.01 365.867 277.986 364.719C276.97 363.562 276.463 361.984 276.463 359.984V359.621C276.463 358.387 276.689 357.289 277.142 356.328C277.595 355.367 278.244 354.621 279.088 354.09C279.939 353.558 280.943 353.293 282.099 353.293C283.521 353.293 284.701 353.719 285.638 354.57C286.584 355.422 287.088 356.527 287.15 357.887H285.099C285.037 357.066 284.724 356.394 284.162 355.871C283.607 355.34 282.92 355.074 282.099 355.074C280.998 355.074 280.142 355.473 279.533 356.269C278.931 357.058 278.631 358.203 278.631 359.703V360.113C278.631 361.574 278.931 362.699 279.533 363.488C280.135 364.277 280.994 364.672 282.111 364.672ZM291.756 355.062C292.717 353.883 293.967 353.293 295.506 353.293C298.185 353.293 299.537 354.805 299.56 357.828V366.207H297.392V357.816C297.385 356.902 297.174 356.226 296.76 355.789C296.353 355.351 295.717 355.133 294.849 355.133C294.146 355.133 293.529 355.32 292.998 355.695C292.467 356.07 292.052 356.562 291.756 357.172V366.207H289.588V348.207H291.756V355.062ZM305.162 366.207H302.994V353.527H305.162V366.207ZM302.818 350.164C302.818 349.812 302.924 349.516 303.135 349.273C303.353 349.031 303.674 348.91 304.095 348.91C304.517 348.91 304.838 349.031 305.056 349.273C305.275 349.516 305.385 349.812 305.385 350.164C305.385 350.516 305.275 350.808 305.056 351.043C304.838 351.277 304.517 351.394 304.095 351.394C303.674 351.394 303.353 351.277 303.135 351.043C302.924 350.808 302.818 350.516 302.818 350.164ZM311.584 350.457V353.527H313.951V355.203H311.584V363.066C311.584 363.574 311.689 363.957 311.9 364.215C312.111 364.465 312.47 364.59 312.978 364.59C313.228 364.59 313.572 364.543 314.01 364.449V366.207C313.439 366.363 312.885 366.441 312.345 366.441C311.377 366.441 310.646 366.148 310.154 365.562C309.662 364.976 309.416 364.144 309.416 363.066V355.203H307.107V353.527H309.416V350.457H311.584ZM321.756 366.441C320.037 366.441 318.638 365.879 317.56 364.754C316.482 363.621 315.943 362.109 315.943 360.219V359.82C315.943 358.562 316.181 357.441 316.658 356.457C317.142 355.465 317.814 354.691 318.674 354.137C319.541 353.574 320.478 353.293 321.486 353.293C323.135 353.293 324.416 353.836 325.33 354.922C326.244 356.008 326.701 357.562 326.701 359.586V360.488H318.111C318.142 361.738 318.506 362.75 319.201 363.523C319.904 364.289 320.795 364.672 321.873 364.672C322.638 364.672 323.287 364.516 323.818 364.203C324.349 363.891 324.814 363.476 325.213 362.961L326.537 363.992C325.474 365.625 323.881 366.441 321.756 366.441ZM321.486 355.074C320.611 355.074 319.877 355.394 319.283 356.035C318.689 356.668 318.322 357.558 318.181 358.707H324.533V358.543C324.47 357.441 324.174 356.59 323.642 355.988C323.111 355.379 322.392 355.074 321.486 355.074ZM334.306 364.672C335.08 364.672 335.756 364.437 336.334 363.969C336.912 363.5 337.232 362.914 337.295 362.211H339.345C339.306 362.937 339.056 363.629 338.595 364.285C338.135 364.941 337.517 365.465 336.744 365.855C335.978 366.246 335.166 366.441 334.306 366.441C332.58 366.441 331.205 365.867 330.181 364.719C329.166 363.562 328.658 361.984 328.658 359.984V359.621C328.658 358.387 328.885 357.289 329.338 356.328C329.791 355.367 330.439 354.621 331.283 354.09C332.135 353.558 333.138 353.293 334.295 353.293C335.717 353.293 336.896 353.719 337.834 354.57C338.779 355.422 339.283 356.527 339.345 357.887H337.295C337.232 357.066 336.92 356.394 336.357 355.871C335.802 355.34 335.115 355.074 334.295 355.074C333.193 355.074 332.338 355.473 331.728 356.269C331.127 357.058 330.826 358.203 330.826 359.703V360.113C330.826 361.574 331.127 362.699 331.728 363.488C332.33 364.277 333.189 364.672 334.306 364.672ZM344.724 350.457V353.527H347.092V355.203H344.724V363.066C344.724 363.574 344.83 363.957 345.041 364.215C345.252 364.465 345.611 364.59 346.119 364.59C346.369 364.59 346.713 364.543 347.15 364.449V366.207C346.58 366.363 346.025 366.441 345.486 366.441C344.517 366.441 343.787 366.148 343.295 365.562C342.802 364.976 342.556 364.144 342.556 363.066V355.203H340.248V353.527H342.556V350.457H344.724ZM357.463 364.953C356.619 365.945 355.381 366.441 353.748 366.441C352.396 366.441 351.365 366.051 350.654 365.269C349.951 364.48 349.595 363.316 349.588 361.777V353.527H351.756V361.719C351.756 363.641 352.537 364.601 354.099 364.601C355.756 364.601 356.857 363.984 357.404 362.75V353.527H359.572V366.207H357.51L357.463 364.953ZM369.006 355.473C368.677 355.418 368.322 355.391 367.939 355.391C366.517 355.391 365.552 355.996 365.045 357.207V366.207H362.877V353.527H364.986L365.021 354.992C365.732 353.859 366.74 353.293 368.045 353.293C368.467 353.293 368.787 353.348 369.006 353.457V355.473ZM376.037 366.441C374.318 366.441 372.92 365.879 371.842 364.754C370.763 363.621 370.224 362.109 370.224 360.219V359.82C370.224 358.562 370.463 357.441 370.939 356.457C371.424 355.465 372.095 354.691 372.955 354.137C373.822 353.574 374.76 353.293 375.767 353.293C377.416 353.293 378.697 353.836 379.611 354.922C380.525 356.008 380.982 357.562 380.982 359.586V360.488H372.392C372.424 361.738 372.787 362.75 373.482 363.523C374.185 364.289 375.076 364.672 376.154 364.672C376.92 364.672 377.568 364.516 378.099 364.203C378.631 363.891 379.095 363.476 379.494 362.961L380.818 363.992C379.756 365.625 378.162 366.441 376.037 366.441ZM375.767 355.074C374.892 355.074 374.158 355.394 373.564 356.035C372.97 356.668 372.603 357.558 372.463 358.707H378.814V358.543C378.752 357.441 378.455 356.59 377.924 355.988C377.392 355.379 376.674 355.074 375.767 355.074Z" fill="black"/>
<line y1="-0.5" x2="754.001" y2="-0.5" transform="matrix(0.999999 -0.0016159 0.00185237 0.999998 0 410.218)" stroke="#DDDDDD"/>
<line y1="-1" x2="754.001" y2="-1" transform="matrix(0.999999 -0.0016159 0.00185237 0.999998 0 515)" stroke="#DDDDDD" stroke-width="2"/>
<path d="M42.4009 461.375H44.1353C45.0103 461.367 45.7017 461.141 46.2095 460.695C46.7251 460.25 46.9829 459.605 46.9829 458.762C46.9829 457.949 46.7681 457.32 46.3384 456.875C45.9165 456.422 45.2681 456.195 44.3931 456.195C43.6274 456.195 42.9985 456.418 42.5063 456.863C42.0142 457.301 41.7681 457.875 41.7681 458.586H38.9204C38.9204 457.711 39.1509 456.914 39.6118 456.195C40.0806 455.476 40.729 454.918 41.5571 454.519C42.3931 454.113 43.3267 453.91 44.3579 453.91C46.061 453.91 47.397 454.34 48.3657 455.199C49.3423 456.051 49.8306 457.238 49.8306 458.762C49.8306 459.527 49.5845 460.25 49.0923 460.93C48.6079 461.601 47.979 462.109 47.2056 462.453C48.1431 462.773 48.854 463.277 49.3384 463.965C49.8306 464.652 50.0767 465.473 50.0767 466.426C50.0767 467.957 49.5493 469.176 48.4946 470.082C47.4478 470.988 46.0688 471.441 44.3579 471.441C42.7173 471.441 41.3735 471.004 40.3267 470.129C39.2798 469.254 38.7563 468.09 38.7563 466.637H41.604C41.604 467.387 41.854 467.996 42.354 468.465C42.8618 468.933 43.5415 469.168 44.3931 469.168C45.2759 469.168 45.9712 468.933 46.479 468.465C46.9868 467.996 47.2407 467.316 47.2407 466.426C47.2407 465.527 46.9751 464.836 46.4438 464.351C45.9126 463.867 45.1235 463.625 44.0767 463.625H42.4009V461.375ZM60.4595 471.207H57.6235V457.508L53.4399 458.937V456.535L60.0962 454.086H60.4595V471.207ZM77.8618 471.207H66.3892V469.25L72.0728 463.051C72.8931 462.137 73.4751 461.375 73.8188 460.766C74.1704 460.148 74.3462 459.531 74.3462 458.914C74.3462 458.101 74.1157 457.445 73.6548 456.945C73.2017 456.445 72.5884 456.195 71.8149 456.195C70.8931 456.195 70.1782 456.476 69.6704 457.039C69.1626 457.601 68.9087 458.371 68.9087 459.348H66.061C66.061 458.308 66.2954 457.375 66.7642 456.547C67.2407 455.711 67.9165 455.062 68.7915 454.601C69.6743 454.141 70.6899 453.91 71.8384 453.91C73.4946 453.91 74.7993 454.328 75.7524 455.164C76.7134 455.992 77.1938 457.141 77.1938 458.609C77.1938 459.461 76.9517 460.355 76.4673 461.293C75.9907 462.223 75.2056 463.281 74.1118 464.469L69.9399 468.933H77.8618V471.207ZM80.7915 462.746L81.7173 454.144H90.8813V456.605H84.0845L83.6157 460.683C84.4048 460.23 85.2954 460.004 86.2876 460.004C87.9126 460.004 89.1743 460.523 90.0728 461.562C90.979 462.601 91.4321 464 91.4321 465.758C91.4321 467.492 90.9321 468.875 89.9321 469.906C88.9321 470.93 87.561 471.441 85.8188 471.441C84.2563 471.441 82.9595 471 81.9282 470.117C80.9048 469.226 80.3501 468.055 80.2642 466.601H83.0181C83.1274 467.43 83.4243 468.066 83.9087 468.512C84.3931 468.949 85.0259 469.168 85.8071 469.168C86.6821 469.168 87.3618 468.855 87.8462 468.23C88.3384 467.605 88.5845 466.754 88.5845 465.676C88.5845 464.637 88.3149 463.816 87.7759 463.215C87.2368 462.605 86.4946 462.301 85.5493 462.301C85.0337 462.301 84.5962 462.371 84.2368 462.512C83.8774 462.644 83.4868 462.91 83.0649 463.308L80.7915 462.746ZM105.026 455.726L98.2056 471.207H95.2173L102.026 456.43H93.2017V454.144H105.026V455.726Z" fill="#4259D4"/>
<path d="M154.412 471.207H152.162V454.144H154.412V471.207ZM160.248 458.527L160.318 460.121C161.287 458.902 162.552 458.293 164.115 458.293C166.795 458.293 168.146 459.805 168.17 462.828V471.207H166.002V462.816C165.994 461.902 165.783 461.226 165.369 460.789C164.963 460.351 164.326 460.133 163.459 460.133C162.756 460.133 162.138 460.32 161.607 460.695C161.076 461.07 160.662 461.562 160.365 462.172V471.207H158.197V458.527H160.248ZM172.506 471.207V460.203H170.502V458.527H172.506V457.226C172.506 455.867 172.869 454.816 173.595 454.074C174.322 453.332 175.349 452.961 176.677 452.961C177.177 452.961 177.674 453.027 178.166 453.16L178.049 454.918C177.681 454.848 177.291 454.812 176.877 454.812C176.174 454.812 175.631 455.019 175.248 455.433C174.865 455.84 174.674 456.426 174.674 457.191V458.527H177.381V460.203H174.674V471.207H172.506ZM179.209 464.75C179.209 463.508 179.451 462.391 179.935 461.398C180.427 460.406 181.107 459.641 181.974 459.101C182.849 458.562 183.845 458.293 184.963 458.293C186.689 458.293 188.084 458.891 189.146 460.086C190.217 461.281 190.752 462.871 190.752 464.855V465.008C190.752 466.242 190.513 467.351 190.037 468.336C189.568 469.312 188.892 470.074 188.01 470.621C187.135 471.168 186.127 471.441 184.986 471.441C183.267 471.441 181.873 470.844 180.802 469.648C179.74 468.453 179.209 466.871 179.209 464.902V464.75ZM181.388 465.008C181.388 466.414 181.713 467.543 182.361 468.394C183.017 469.246 183.892 469.672 184.986 469.672C186.088 469.672 186.963 469.242 187.611 468.383C188.26 467.516 188.584 466.305 188.584 464.75C188.584 463.359 188.252 462.234 187.588 461.375C186.931 460.508 186.056 460.074 184.963 460.074C183.892 460.074 183.029 460.5 182.373 461.351C181.717 462.203 181.388 463.422 181.388 465.008ZM199.599 460.473C199.271 460.418 198.916 460.391 198.533 460.391C197.111 460.391 196.146 460.996 195.638 462.207V471.207H193.47V458.527H195.58L195.615 459.992C196.326 458.859 197.334 458.293 198.638 458.293C199.06 458.293 199.381 458.348 199.599 458.457V460.473ZM203.642 458.527L203.701 459.933C204.631 458.84 205.885 458.293 207.463 458.293C209.236 458.293 210.443 458.973 211.084 460.332C211.506 459.723 212.052 459.23 212.724 458.855C213.404 458.48 214.205 458.293 215.127 458.293C217.908 458.293 219.322 459.766 219.369 462.711V471.207H217.201V462.84C217.201 461.933 216.994 461.258 216.58 460.812C216.166 460.359 215.47 460.133 214.494 460.133C213.689 460.133 213.021 460.375 212.49 460.859C211.959 461.336 211.65 461.98 211.564 462.793V471.207H209.385V462.898C209.385 461.055 208.482 460.133 206.677 460.133C205.256 460.133 204.283 460.738 203.76 461.949V471.207H201.592V458.527H203.642ZM230.478 471.207C230.353 470.957 230.252 470.512 230.174 469.871C229.166 470.918 227.963 471.441 226.564 471.441C225.314 471.441 224.287 471.09 223.482 470.387C222.685 469.676 222.287 468.777 222.287 467.691C222.287 466.371 222.787 465.348 223.787 464.621C224.795 463.887 226.209 463.519 228.029 463.519H230.138V462.523C230.138 461.766 229.912 461.164 229.459 460.719C229.006 460.266 228.338 460.039 227.455 460.039C226.681 460.039 226.033 460.234 225.51 460.625C224.986 461.016 224.724 461.488 224.724 462.043H222.545C222.545 461.41 222.767 460.801 223.213 460.215C223.666 459.621 224.275 459.152 225.041 458.808C225.814 458.465 226.662 458.293 227.584 458.293C229.045 458.293 230.189 458.66 231.017 459.394C231.845 460.121 232.275 461.125 232.306 462.406V468.242C232.306 469.406 232.455 470.332 232.752 471.019V471.207H230.478ZM226.881 469.555C227.56 469.555 228.205 469.379 228.814 469.027C229.424 468.676 229.865 468.219 230.138 467.656V465.055H228.439C225.783 465.055 224.455 465.832 224.455 467.387C224.455 468.066 224.681 468.598 225.135 468.98C225.588 469.363 226.17 469.555 226.881 469.555ZM238.646 455.457V458.527H241.013V460.203H238.646V468.066C238.646 468.574 238.752 468.957 238.963 469.215C239.174 469.465 239.533 469.59 240.041 469.59C240.291 469.59 240.635 469.543 241.072 469.449V471.207C240.502 471.363 239.947 471.441 239.408 471.441C238.439 471.441 237.709 471.148 237.217 470.562C236.724 469.976 236.478 469.144 236.478 468.066V460.203H234.17V458.527H236.478V455.457H238.646ZM245.912 471.207H243.744V458.527H245.912V471.207ZM243.568 455.164C243.568 454.812 243.674 454.516 243.885 454.273C244.103 454.031 244.424 453.91 244.845 453.91C245.267 453.91 245.588 454.031 245.806 454.273C246.025 454.516 246.135 454.812 246.135 455.164C246.135 455.516 246.025 455.808 245.806 456.043C245.588 456.277 245.267 456.394 244.845 456.394C244.424 456.394 244.103 456.277 243.885 456.043C243.674 455.808 243.568 455.516 243.568 455.164ZM248.818 464.75C248.818 463.508 249.06 462.391 249.545 461.398C250.037 460.406 250.717 459.641 251.584 459.101C252.459 458.562 253.455 458.293 254.572 458.293C256.299 458.293 257.693 458.891 258.756 460.086C259.826 461.281 260.361 462.871 260.361 464.855V465.008C260.361 466.242 260.123 467.351 259.646 468.336C259.177 469.312 258.502 470.074 257.619 470.621C256.744 471.168 255.736 471.441 254.595 471.441C252.877 471.441 251.482 470.844 250.412 469.648C249.349 468.453 248.818 466.871 248.818 464.902V464.75ZM250.998 465.008C250.998 466.414 251.322 467.543 251.97 468.394C252.627 469.246 253.502 469.672 254.595 469.672C255.697 469.672 256.572 469.242 257.22 468.383C257.869 467.516 258.193 466.305 258.193 464.75C258.193 463.359 257.861 462.234 257.197 461.375C256.541 460.508 255.666 460.074 254.572 460.074C253.502 460.074 252.638 460.5 251.982 461.351C251.326 462.203 250.998 463.422 250.998 465.008ZM265.131 458.527L265.201 460.121C266.17 458.902 267.435 458.293 268.998 458.293C271.677 458.293 273.029 459.805 273.052 462.828V471.207H270.885V462.816C270.877 461.902 270.666 461.226 270.252 460.789C269.845 460.351 269.209 460.133 268.342 460.133C267.638 460.133 267.021 460.32 266.49 460.695C265.959 461.07 265.545 461.562 265.248 462.172V471.207H263.08V458.527H265.131ZM287.642 463.601C285.713 463.047 284.306 462.367 283.424 461.562C282.549 460.75 282.111 459.75 282.111 458.562C282.111 457.219 282.646 456.109 283.717 455.234C284.795 454.351 286.193 453.91 287.912 453.91C289.084 453.91 290.127 454.137 291.041 454.59C291.963 455.043 292.674 455.668 293.174 456.465C293.681 457.262 293.935 458.133 293.935 459.078H291.674C291.674 458.047 291.345 457.238 290.689 456.652C290.033 456.058 289.107 455.762 287.912 455.762C286.802 455.762 285.935 456.008 285.31 456.5C284.693 456.984 284.385 457.66 284.385 458.527C284.385 459.223 284.677 459.812 285.263 460.297C285.857 460.773 286.861 461.211 288.275 461.609C289.697 462.008 290.806 462.449 291.603 462.933C292.408 463.41 293.002 463.969 293.385 464.609C293.775 465.25 293.97 466.004 293.97 466.871C293.97 468.254 293.431 469.363 292.353 470.199C291.275 471.027 289.834 471.441 288.029 471.441C286.857 471.441 285.763 471.219 284.748 470.773C283.732 470.32 282.947 469.703 282.392 468.922C281.845 468.141 281.572 467.254 281.572 466.262H283.834C283.834 467.293 284.213 468.109 284.97 468.711C285.736 469.305 286.756 469.601 288.029 469.601C289.217 469.601 290.127 469.359 290.76 468.875C291.392 468.391 291.709 467.73 291.709 466.894C291.709 466.058 291.416 465.414 290.83 464.961C290.244 464.5 289.181 464.047 287.642 463.601ZM300.674 468.031L303.627 458.527H305.947L300.849 473.164C300.06 475.273 298.806 476.328 297.088 476.328L296.677 476.293L295.869 476.141V474.383L296.455 474.43C297.189 474.43 297.76 474.281 298.166 473.984C298.58 473.687 298.92 473.144 299.185 472.355L299.666 471.066L295.142 458.527H297.51L300.674 468.031ZM315.275 467.844C315.275 467.258 315.052 466.805 314.607 466.484C314.17 466.156 313.4 465.875 312.299 465.641C311.205 465.406 310.334 465.125 309.685 464.797C309.045 464.469 308.568 464.078 308.256 463.625C307.951 463.172 307.799 462.633 307.799 462.008C307.799 460.969 308.236 460.09 309.111 459.371C309.994 458.652 311.119 458.293 312.486 458.293C313.924 458.293 315.088 458.664 315.978 459.406C316.877 460.148 317.326 461.098 317.326 462.254H315.146C315.146 461.66 314.892 461.148 314.385 460.719C313.885 460.289 313.252 460.074 312.486 460.074C311.697 460.074 311.08 460.246 310.635 460.59C310.189 460.933 309.967 461.383 309.967 461.937C309.967 462.461 310.174 462.855 310.588 463.121C311.002 463.387 311.748 463.641 312.826 463.883C313.912 464.125 314.791 464.414 315.463 464.75C316.135 465.086 316.631 465.492 316.951 465.969C317.279 466.437 317.443 467.012 317.443 467.691C317.443 468.824 316.99 469.734 316.084 470.422C315.177 471.101 314.002 471.441 312.556 471.441C311.541 471.441 310.642 471.262 309.861 470.902C309.08 470.543 308.467 470.043 308.021 469.402C307.584 468.754 307.365 468.055 307.365 467.305H309.533C309.572 468.031 309.861 468.609 310.4 469.039C310.947 469.461 311.666 469.672 312.556 469.672C313.377 469.672 314.033 469.508 314.525 469.18C315.025 468.844 315.275 468.398 315.275 467.844ZM323.209 455.457V458.527H325.576V460.203H323.209V468.066C323.209 468.574 323.314 468.957 323.525 469.215C323.736 469.465 324.095 469.59 324.603 469.59C324.853 469.59 325.197 469.543 325.635 469.449V471.207C325.064 471.363 324.51 471.441 323.97 471.441C323.002 471.441 322.271 471.148 321.779 470.562C321.287 469.976 321.041 469.144 321.041 468.066V460.203H318.732V458.527H321.041V455.457H323.209ZM333.381 471.441C331.662 471.441 330.263 470.879 329.185 469.754C328.107 468.621 327.568 467.109 327.568 465.219V464.82C327.568 463.562 327.806 462.441 328.283 461.457C328.767 460.465 329.439 459.691 330.299 459.137C331.166 458.574 332.103 458.293 333.111 458.293C334.76 458.293 336.041 458.836 336.955 459.922C337.869 461.008 338.326 462.562 338.326 464.586V465.488H329.736C329.767 466.738 330.131 467.75 330.826 468.523C331.529 469.289 332.42 469.672 333.498 469.672C334.263 469.672 334.912 469.516 335.443 469.203C335.974 468.891 336.439 468.476 336.838 467.961L338.162 468.992C337.099 470.625 335.506 471.441 333.381 471.441ZM333.111 460.074C332.236 460.074 331.502 460.394 330.908 461.035C330.314 461.668 329.947 462.558 329.806 463.707H336.158V463.543C336.095 462.441 335.799 461.59 335.267 460.988C334.736 460.379 334.017 460.074 333.111 460.074ZM342.885 458.527L342.943 459.933C343.873 458.84 345.127 458.293 346.705 458.293C348.478 458.293 349.685 458.973 350.326 460.332C350.748 459.723 351.295 459.23 351.967 458.855C352.646 458.48 353.447 458.293 354.369 458.293C357.15 458.293 358.564 459.766 358.611 462.711V471.207H356.443V462.84C356.443 461.933 356.236 461.258 355.822 460.812C355.408 460.359 354.713 460.133 353.736 460.133C352.931 460.133 352.263 460.375 351.732 460.859C351.201 461.336 350.892 461.98 350.806 462.793V471.207H348.627V462.898C348.627 461.055 347.724 460.133 345.92 460.133C344.498 460.133 343.525 460.738 343.002 461.949V471.207H340.834V458.527H342.885ZM368.185 471.207V454.144H373.002C374.486 454.144 375.799 454.473 376.939 455.129C378.08 455.785 378.959 456.719 379.576 457.93C380.201 459.141 380.517 460.531 380.525 462.101V463.191C380.525 464.801 380.213 466.211 379.588 467.422C378.97 468.633 378.084 469.562 376.927 470.211C375.779 470.859 374.439 471.191 372.908 471.207H368.185ZM370.435 455.996V469.367H372.802C374.537 469.367 375.885 468.828 376.845 467.75C377.814 466.672 378.299 465.137 378.299 463.144V462.148C378.299 460.211 377.842 458.707 376.927 457.637C376.021 456.558 374.732 456.012 373.06 455.996H370.435ZM388.857 471.441C387.138 471.441 385.74 470.879 384.662 469.754C383.584 468.621 383.045 467.109 383.045 465.219V464.82C383.045 463.562 383.283 462.441 383.76 461.457C384.244 460.465 384.916 459.691 385.775 459.137C386.642 458.574 387.58 458.293 388.588 458.293C390.236 458.293 391.517 458.836 392.431 459.922C393.345 461.008 393.802 462.562 393.802 464.586V465.488H385.213C385.244 466.738 385.607 467.75 386.302 468.523C387.006 469.289 387.896 469.672 388.974 469.672C389.74 469.672 390.388 469.516 390.92 469.203C391.451 468.891 391.916 468.476 392.314 467.961L393.638 468.992C392.576 470.625 390.982 471.441 388.857 471.441ZM388.588 460.074C387.713 460.074 386.978 460.394 386.385 461.035C385.791 461.668 385.424 462.558 385.283 463.707H391.635V463.543C391.572 462.441 391.275 461.59 390.744 460.988C390.213 460.379 389.494 460.074 388.588 460.074ZM400.342 468.266L403.482 458.527H405.697L401.15 471.207H399.498L394.904 458.527H397.119L400.342 468.266ZM412.881 471.441C411.162 471.441 409.763 470.879 408.685 469.754C407.607 468.621 407.068 467.109 407.068 465.219V464.82C407.068 463.562 407.306 462.441 407.783 461.457C408.267 460.465 408.939 459.691 409.799 459.137C410.666 458.574 411.603 458.293 412.611 458.293C414.26 458.293 415.541 458.836 416.455 459.922C417.369 461.008 417.826 462.562 417.826 464.586V465.488H409.236C409.267 466.738 409.631 467.75 410.326 468.523C411.029 469.289 411.92 469.672 412.998 469.672C413.763 469.672 414.412 469.516 414.943 469.203C415.474 468.891 415.939 468.476 416.338 467.961L417.662 468.992C416.599 470.625 415.006 471.441 412.881 471.441ZM412.611 460.074C411.736 460.074 411.002 460.394 410.408 461.035C409.814 461.668 409.447 462.558 409.306 463.707H415.658V463.543C415.595 462.441 415.299 461.59 414.767 460.988C414.236 460.379 413.517 460.074 412.611 460.074ZM422.701 471.207H420.533V453.207H422.701V471.207ZM425.607 464.75C425.607 463.508 425.849 462.391 426.334 461.398C426.826 460.406 427.506 459.641 428.373 459.101C429.248 458.562 430.244 458.293 431.361 458.293C433.088 458.293 434.482 458.891 435.545 460.086C436.615 461.281 437.15 462.871 437.15 464.855V465.008C437.15 466.242 436.912 467.351 436.435 468.336C435.967 469.312 435.291 470.074 434.408 470.621C433.533 471.168 432.525 471.441 431.385 471.441C429.666 471.441 428.271 470.844 427.201 469.648C426.138 468.453 425.607 466.871 425.607 464.902V464.75ZM427.787 465.008C427.787 466.414 428.111 467.543 428.76 468.394C429.416 469.246 430.291 469.672 431.385 469.672C432.486 469.672 433.361 469.242 434.01 468.383C434.658 467.516 434.982 466.305 434.982 464.75C434.982 463.359 434.65 462.234 433.986 461.375C433.33 460.508 432.455 460.074 431.361 460.074C430.291 460.074 429.427 460.5 428.771 461.351C428.115 462.203 427.787 463.422 427.787 465.008ZM450.58 465.008C450.58 466.937 450.138 468.492 449.256 469.672C448.373 470.851 447.177 471.441 445.67 471.441C444.131 471.441 442.92 470.953 442.037 469.976V476.082H439.869V458.527H441.849L441.955 459.933C442.838 458.84 444.064 458.293 445.635 458.293C447.158 458.293 448.361 458.867 449.244 460.016C450.135 461.164 450.58 462.762 450.58 464.808V465.008ZM448.412 464.762C448.412 463.332 448.107 462.203 447.498 461.375C446.888 460.547 446.052 460.133 444.99 460.133C443.677 460.133 442.693 460.715 442.037 461.879V467.937C442.685 469.094 443.677 469.672 445.013 469.672C446.052 469.672 446.877 469.262 447.486 468.441C448.103 467.613 448.412 466.387 448.412 464.762ZM455.385 458.527L455.443 459.933C456.373 458.84 457.627 458.293 459.205 458.293C460.978 458.293 462.185 458.973 462.826 460.332C463.248 459.723 463.795 459.23 464.467 458.855C465.146 458.48 465.947 458.293 466.869 458.293C469.65 458.293 471.064 459.766 471.111 462.711V471.207H468.943V462.84C468.943 461.933 468.736 461.258 468.322 460.812C467.908 460.359 467.213 460.133 466.236 460.133C465.431 460.133 464.763 460.375 464.232 460.859C463.701 461.336 463.392 461.98 463.306 462.793V471.207H461.127V462.898C461.127 461.055 460.224 460.133 458.42 460.133C456.998 460.133 456.025 460.738 455.502 461.949V471.207H453.334V458.527H455.385ZM479.654 471.441C477.935 471.441 476.537 470.879 475.459 469.754C474.381 468.621 473.842 467.109 473.842 465.219V464.82C473.842 463.562 474.08 462.441 474.556 461.457C475.041 460.465 475.713 459.691 476.572 459.137C477.439 458.574 478.377 458.293 479.385 458.293C481.033 458.293 482.314 458.836 483.228 459.922C484.142 461.008 484.599 462.562 484.599 464.586V465.488H476.01C476.041 466.738 476.404 467.75 477.099 468.523C477.802 469.289 478.693 469.672 479.771 469.672C480.537 469.672 481.185 469.516 481.717 469.203C482.248 468.891 482.713 468.476 483.111 467.961L484.435 468.992C483.373 470.625 481.779 471.441 479.654 471.441ZM479.385 460.074C478.51 460.074 477.775 460.394 477.181 461.035C476.588 461.668 476.22 462.558 476.08 463.707H482.431V463.543C482.369 462.441 482.072 461.59 481.541 460.988C481.01 460.379 480.291 460.074 479.385 460.074ZM489.17 458.527L489.24 460.121C490.209 458.902 491.474 458.293 493.037 458.293C495.717 458.293 497.068 459.805 497.092 462.828V471.207H494.924V462.816C494.916 461.902 494.705 461.226 494.291 460.789C493.885 460.351 493.248 460.133 492.381 460.133C491.677 460.133 491.06 460.32 490.529 460.695C489.998 461.07 489.584 461.562 489.287 462.172V471.207H487.119V458.527H489.17ZM503.302 455.457V458.527H505.67V460.203H503.302V468.066C503.302 468.574 503.408 468.957 503.619 469.215C503.83 469.465 504.189 469.59 504.697 469.59C504.947 469.59 505.291 469.543 505.728 469.449V471.207C505.158 471.363 504.603 471.441 504.064 471.441C503.095 471.441 502.365 471.148 501.873 470.562C501.381 469.976 501.135 469.144 501.135 468.066V460.203H498.826V458.527H501.135V455.457H503.302ZM517.412 454.144L522.99 468.066L528.568 454.144H531.486V471.207H529.236V464.562L529.447 457.391L523.845 471.207H522.123L516.533 457.426L516.756 464.562V471.207H514.506V454.144H517.412ZM540.381 471.441C538.662 471.441 537.263 470.879 536.185 469.754C535.107 468.621 534.568 467.109 534.568 465.219V464.82C534.568 463.562 534.806 462.441 535.283 461.457C535.767 460.465 536.439 459.691 537.299 459.137C538.166 458.574 539.103 458.293 540.111 458.293C541.76 458.293 543.041 458.836 543.955 459.922C544.869 461.008 545.326 462.562 545.326 464.586V465.488H536.736C536.767 466.738 537.131 467.75 537.826 468.523C538.529 469.289 539.42 469.672 540.498 469.672C541.263 469.672 541.912 469.516 542.443 469.203C542.974 468.891 543.439 468.476 543.838 467.961L545.162 468.992C544.099 470.625 542.506 471.441 540.381 471.441ZM540.111 460.074C539.236 460.074 538.502 460.394 537.908 461.035C537.314 461.668 536.947 462.558 536.806 463.707H543.158V463.543C543.095 462.441 542.799 461.59 542.267 460.988C541.736 460.379 541.017 460.074 540.111 460.074ZM550.787 455.457V458.527H553.154V460.203H550.787V468.066C550.787 468.574 550.892 468.957 551.103 469.215C551.314 469.465 551.674 469.59 552.181 469.59C552.431 469.59 552.775 469.543 553.213 469.449V471.207C552.642 471.363 552.088 471.441 551.549 471.441C550.58 471.441 549.849 471.148 549.357 470.562C548.865 469.976 548.619 469.144 548.619 468.066V460.203H546.31V458.527H548.619V455.457H550.787ZM557.865 460.062C558.826 458.883 560.076 458.293 561.615 458.293C564.295 458.293 565.646 459.805 565.67 462.828V471.207H563.502V462.816C563.494 461.902 563.283 461.226 562.869 460.789C562.463 460.351 561.826 460.133 560.959 460.133C560.256 460.133 559.638 460.32 559.107 460.695C558.576 461.07 558.162 461.562 557.865 462.172V471.207H555.697V453.207H557.865V460.062ZM568.342 464.75C568.342 463.508 568.584 462.391 569.068 461.398C569.56 460.406 570.24 459.641 571.107 459.101C571.982 458.562 572.978 458.293 574.095 458.293C575.822 458.293 577.217 458.891 578.279 460.086C579.349 461.281 579.885 462.871 579.885 464.855V465.008C579.885 466.242 579.646 467.351 579.17 468.336C578.701 469.312 578.025 470.074 577.142 470.621C576.267 471.168 575.26 471.441 574.119 471.441C572.4 471.441 571.006 470.844 569.935 469.648C568.873 468.453 568.342 466.871 568.342 464.902V464.75ZM570.521 465.008C570.521 466.414 570.845 467.543 571.494 468.394C572.15 469.246 573.025 469.672 574.119 469.672C575.22 469.672 576.095 469.242 576.744 468.383C577.392 467.516 577.717 466.305 577.717 464.75C577.717 463.359 577.385 462.234 576.72 461.375C576.064 460.508 575.189 460.074 574.095 460.074C573.025 460.074 572.162 460.5 571.506 461.351C570.849 462.203 570.521 463.422 570.521 465.008ZM582.076 464.762C582.076 462.816 582.537 461.254 583.459 460.074C584.381 458.887 585.588 458.293 587.08 458.293C588.564 458.293 589.74 458.801 590.607 459.816V453.207H592.775V471.207H590.783L590.677 469.848C589.81 470.91 588.603 471.441 587.056 471.441C585.588 471.441 584.388 470.84 583.459 469.637C582.537 468.433 582.076 466.863 582.076 464.926V464.762ZM584.244 465.008C584.244 466.445 584.541 467.57 585.135 468.383C585.728 469.195 586.549 469.601 587.595 469.601C588.97 469.601 589.974 468.984 590.607 467.75V461.926C589.959 460.73 588.963 460.133 587.619 460.133C586.556 460.133 585.728 460.543 585.135 461.363C584.541 462.183 584.244 463.398 584.244 465.008ZM595.576 464.75C595.576 463.508 595.818 462.391 596.302 461.398C596.795 460.406 597.474 459.641 598.342 459.101C599.217 458.562 600.213 458.293 601.33 458.293C603.056 458.293 604.451 458.891 605.513 460.086C606.584 461.281 607.119 462.871 607.119 464.855V465.008C607.119 466.242 606.881 467.351 606.404 468.336C605.935 469.312 605.26 470.074 604.377 470.621C603.502 471.168 602.494 471.441 601.353 471.441C599.635 471.441 598.24 470.844 597.17 469.648C596.107 468.453 595.576 466.871 595.576 464.902V464.75ZM597.756 465.008C597.756 466.414 598.08 467.543 598.728 468.394C599.385 469.246 600.26 469.672 601.353 469.672C602.455 469.672 603.33 469.242 603.978 468.383C604.627 467.516 604.951 466.305 604.951 464.75C604.951 463.359 604.619 462.234 603.955 461.375C603.299 460.508 602.424 460.074 601.33 460.074C600.26 460.074 599.396 460.5 598.74 461.351C598.084 462.203 597.756 463.422 597.756 465.008ZM612.193 471.207H610.025V453.207H612.193V471.207ZM615.099 464.75C615.099 463.508 615.342 462.391 615.826 461.398C616.318 460.406 616.998 459.641 617.865 459.101C618.74 458.562 619.736 458.293 620.853 458.293C622.58 458.293 623.974 458.891 625.037 460.086C626.107 461.281 626.642 462.871 626.642 464.855V465.008C626.642 466.242 626.404 467.351 625.927 468.336C625.459 469.312 624.783 470.074 623.9 470.621C623.025 471.168 622.017 471.441 620.877 471.441C619.158 471.441 617.763 470.844 616.693 469.648C615.631 468.453 615.099 466.871 615.099 464.902V464.75ZM617.279 465.008C617.279 466.414 617.603 467.543 618.252 468.394C618.908 469.246 619.783 469.672 620.877 469.672C621.978 469.672 622.853 469.242 623.502 468.383C624.15 467.516 624.474 466.305 624.474 464.75C624.474 463.359 624.142 462.234 623.478 461.375C622.822 460.508 621.947 460.074 620.853 460.074C619.783 460.074 618.92 460.5 618.263 461.351C617.607 462.203 617.279 463.422 617.279 465.008ZM628.845 464.762C628.845 462.785 629.302 461.215 630.217 460.051C631.131 458.879 632.342 458.293 633.849 458.293C635.396 458.293 636.603 458.84 637.47 459.933L637.576 458.527H639.556V470.902C639.556 472.543 639.068 473.836 638.092 474.781C637.123 475.726 635.818 476.199 634.177 476.199C633.263 476.199 632.369 476.004 631.494 475.613C630.619 475.223 629.951 474.687 629.49 474.008L630.615 472.707C631.545 473.855 632.681 474.43 634.025 474.43C635.08 474.43 635.9 474.133 636.486 473.539C637.08 472.945 637.377 472.109 637.377 471.031V469.941C636.51 470.941 635.326 471.441 633.826 471.441C632.342 471.441 631.138 470.844 630.217 469.648C629.302 468.453 628.845 466.824 628.845 464.762ZM631.025 465.008C631.025 466.437 631.318 467.562 631.904 468.383C632.49 469.195 633.31 469.601 634.365 469.601C635.732 469.601 636.736 468.98 637.377 467.738V461.949C636.713 460.738 635.717 460.133 634.388 460.133C633.334 460.133 632.51 460.543 631.916 461.363C631.322 462.183 631.025 463.398 631.025 465.008ZM645.193 471.207H643.025V458.527H645.193V471.207ZM642.849 455.164C642.849 454.812 642.955 454.516 643.166 454.273C643.385 454.031 643.705 453.91 644.127 453.91C644.549 453.91 644.869 454.031 645.088 454.273C645.306 454.516 645.416 454.812 645.416 455.164C645.416 455.516 645.306 455.808 645.088 456.043C644.869 456.277 644.549 456.394 644.127 456.394C643.705 456.394 643.385 456.277 643.166 456.043C642.955 455.808 642.849 455.516 642.849 455.164ZM653.935 471.441C652.217 471.441 650.818 470.879 649.74 469.754C648.662 468.621 648.123 467.109 648.123 465.219V464.82C648.123 463.562 648.361 462.441 648.838 461.457C649.322 460.465 649.994 459.691 650.853 459.137C651.72 458.574 652.658 458.293 653.666 458.293C655.314 458.293 656.595 458.836 657.51 459.922C658.424 461.008 658.881 462.562 658.881 464.586V465.488H650.291C650.322 466.738 650.685 467.75 651.381 468.523C652.084 469.289 652.974 469.672 654.052 469.672C654.818 469.672 655.467 469.516 655.998 469.203C656.529 468.891 656.994 468.476 657.392 467.961L658.717 468.992C657.654 470.625 656.06 471.441 653.935 471.441ZM653.666 460.074C652.791 460.074 652.056 460.394 651.463 461.035C650.869 461.668 650.502 462.558 650.361 463.707H656.713V463.543C656.65 462.441 656.353 461.59 655.822 460.988C655.291 460.379 654.572 460.074 653.666 460.074ZM668.783 467.844C668.783 467.258 668.56 466.805 668.115 466.484C667.677 466.156 666.908 465.875 665.806 465.641C664.713 465.406 663.842 465.125 663.193 464.797C662.552 464.469 662.076 464.078 661.763 463.625C661.459 463.172 661.306 462.633 661.306 462.008C661.306 460.969 661.744 460.09 662.619 459.371C663.502 458.652 664.627 458.293 665.994 458.293C667.431 458.293 668.595 458.664 669.486 459.406C670.385 460.148 670.834 461.098 670.834 462.254H668.654C668.654 461.66 668.4 461.148 667.892 460.719C667.392 460.289 666.76 460.074 665.994 460.074C665.205 460.074 664.588 460.246 664.142 460.59C663.697 460.933 663.474 461.383 663.474 461.937C663.474 462.461 663.681 462.855 664.095 463.121C664.51 463.387 665.256 463.641 666.334 463.883C667.42 464.125 668.299 464.414 668.97 464.75C669.642 465.086 670.138 465.492 670.459 465.969C670.787 466.437 670.951 467.012 670.951 467.691C670.951 468.824 670.498 469.734 669.592 470.422C668.685 471.101 667.51 471.441 666.064 471.441C665.049 471.441 664.15 471.262 663.369 470.902C662.588 470.543 661.974 470.043 661.529 469.402C661.092 468.754 660.873 468.055 660.873 467.305H663.041C663.08 468.031 663.369 468.609 663.908 469.039C664.455 469.461 665.174 469.672 666.064 469.672C666.885 469.672 667.541 469.508 668.033 469.18C668.533 468.844 668.783 468.398 668.783 467.844Z" fill="black"/>
</g>
<defs>
<clipPath id="clip0">
<rect width="754" height="514" rx="6" fill="white"/>
</clipPath>
</defs>
</svg>
